<?xml version="1.0" encoding="UTF-8"?>
<svg xmlns="http://www.w3.org/2000/svg" xmlns:xlink="http://www.w3.org/1999/xlink" viewBox="0 0 750 500">
  <defs>
    <style>
      .cls-1, .cls-2 {
        fill: none;
      }

      .cls-3 {
        fill: #547c35;
      }

      .cls-4 {
        fill: #85cbff;
      }

      .cls-5 {
        fill: #aec2cf;
      }

      .cls-6 {
        fill: #4b7036;
      }

      .cls-7, .cls-8 {
        fill: #fff9c2;
      }

      .cls-9 {
        fill: #516e31;
      }

      .cls-10 {
        fill: #7ba133;
      }

      .cls-11 {
        fill: #b3f1ff;
      }

      .cls-12 {
        isolation: isolate;
      }

      .cls-13 {
        fill: #334d24;
      }

      .cls-14 {
        fill: #395424;
      }

      .cls-15 {
        fill: #ffd55e;
      }

      .cls-16 {
        fill: #6d9127;
      }

      .cls-17, .cls-18 {
        fill: #fff;
      }

      .cls-19 {
        fill: #4f6633;
        mix-blend-mode: multiply;
      }

      .cls-19, .cls-20 {
        opacity: .3;
      }

      .cls-21 {
        fill: #64871f;
      }

      .cls-22 {
        fill: #6f9643;
      }

      .cls-23 {
        fill: #57751b;
      }

      .cls-24 {
        fill: #41612f;
      }

      .cls-25, .cls-8 {
        opacity: .25;
      }

      .cls-26 {
        fill: #57b7f2;
      }

      .cls-2 {
        stroke: #000;
        stroke-miterlimit: 10;
        stroke-width: 2px;
      }

      .cls-27 {
        fill: #c3d4de;
      }

      .cls-28 {
        fill: #634336;
      }

      .cls-29 {
        fill: #6b7c80;
      }

      .cls-18 {
        font-family: ArialMT, Arial;
        font-size: 12px;
      }

      .cls-30 {
        fill: #536063;
      }

      .cls-31 {
        fill: #8ab041;
      }

      .cls-20 {
        fill: #a6eeff;
        mix-blend-mode: screen;
      }

      .cls-32 {
        clip-path: url(#clippath);
      }
    </style>
    <clipPath id="clippath">
      <rect class="cls-1" y="0" width="750" height="500"/>
    </clipPath>
  </defs>
  <g class="cls-12">
    <g id="BACKGROUND">
      <rect class="cls-11" y="0" width="750" height="500"/>
    </g>
    <g id="OBJECTS">
      <g class="cls-32">
        <g>
          <path class="cls-5" d="M109.02,293.52l374.11-1.05v-35.38s-84.58-40.89-84.58-40.89l23.57,23.57-33.2-21.17s-66.88-39.46-68.8-39.93c-1.93-.48,9.14,17.32,9.14,17.32l-117.63-43.06-57.73,43.31,30.07-10.83-54.85,47.15,62.55-22.13-77.94,48.12-4.71,34.99Z"/>
          <polygon class="cls-17" points="-66.74 293.52 190.35 152.91 180.97 167.35 212.48 152.91 154.75 196.22 183.81 185.76 129.97 232.54 192.51 210.41 114.57 258.53 109.02 293.52 -66.74 293.52"/>
          <polyline class="cls-27" points="320.13 178.66 329.27 195.98 285.38 179.91"/>
          <polygon class="cls-27" points="387.36 217.67 398.55 216.19 422.13 239.76 387.36 217.67"/>
          <polygon class="cls-27" points="211.64 152.91 189.5 152.91 180.12 167.35 211.64 152.91"/>
        </g>
        <g>
          <path class="cls-5" d="M464.85,293.5l295.24-43.47v-27.1s-64.78-31.32-64.78-31.32l18.05,18.05-25.43-16.21s-51.22-30.22-52.69-30.59c-1.47-.37,7,13.26,7,13.26l-90.1-32.98-44.22,33.17,23.03-8.29-42.01,36.11,47.9-16.95-59.7,36.85-12.31,69.46Z"/>
          <polygon class="cls-17" points="265.96 290.76 535.85 143.16 528.67 154.21 552.8 143.16 508.58 176.32 530.85 168.31 489.61 204.15 537.51 187.19 477.81 224.05 467 288.44 265.96 290.76"/>
          <polyline class="cls-27" points="635.25 162.87 642.25 176.14 608.64 163.83"/>
          <polygon class="cls-27" points="686.75 192.75 695.32 191.62 713.37 209.67 686.75 192.75"/>
          <polygon class="cls-27" points="552.16 143.16 535.2 143.16 528.02 154.21 552.16 143.16"/>
        </g>
        <g>
          <g>
            <path class="cls-9" d="M427.02,236.43c3.31,1.47,7.1-1.1,7.1-1.1-6.67-2.85-8.08-8.36-8.08-8.36,2.57.83,5.08-.64,5.08-.64-5.02-2.85-6.67-8-6.67-8,2.2.55,4.96-1.01,4.96-1.01-4.9-2.76-6.61-8.64-6.61-8.64,1.04.83,3.49.37,3.49.37-3-2.39-4.22-7.63-4.22-7.63.8.37,1.65,0,1.65,0-2.45-2.11-4.04-9.47-4.04-9.47,0,0-1.59,7.35-4.04,9.47,0,0,.86.37,1.65,0,0,0-1.22,5.24-4.22,7.63,0,0,2.45.46,3.49-.37,0,0-1.71,5.88-6.61,8.64,0,0,2.76,1.56,4.96,1.01,0,0-1.65,5.15-6.67,8,0,0,2.51,1.47,5.08.64,0,0-1.41,5.52-8.08,8.36,0,0,3.8,2.57,7.1,1.1,0,0-3.74,8.77-8.88,9.96h32.46c-5.14-1.19-8.88-9.96-8.88-9.96Z"/>
            <path class="cls-9" d="M342.61,237.07c3.31,1.57,7.1-1.18,7.1-1.18-6.67-3.04-8.08-8.91-8.08-8.91,2.57.88,5.08-.69,5.08-.69-5.02-3.04-6.67-8.52-6.67-8.52,2.2.59,4.96-1.08,4.96-1.08-4.9-2.94-6.61-9.2-6.61-9.2,1.04.88,3.49.39,3.49.39-3-2.55-4.22-8.13-4.22-8.13.8.39,1.65,0,1.65,0-2.45-2.25-4.04-10.08-4.04-10.08,0,0-1.59,7.83-4.04,10.08,0,0,.86.39,1.65,0,0,0-1.22,5.58-4.22,8.13,0,0,2.45.49,3.49-.39,0,0-1.71,6.27-6.61,9.2,0,0,2.76,1.66,4.96,1.08,0,0-1.65,5.48-6.67,8.52,0,0,2.51,1.57,5.08.69,0,0-1.41,5.87-8.08,8.91,0,0,3.8,2.74,7.1,1.18,0,0-3.74,9.34-8.88,10.61h32.46c-5.14-1.27-8.88-10.61-8.88-10.61Z"/>
            <path class="cls-9" d="M467.5,223.18c3.06,1.47,6.57-1.1,6.57-1.1-6.18-2.85-7.48-8.36-7.48-8.36,2.38.83,4.7-.64,4.7-.64-4.65-2.85-6.18-8-6.18-8,2.04.55,4.59-1.01,4.59-1.01-4.53-2.76-6.12-8.64-6.12-8.64.96.83,3.23.37,3.23.37-2.78-2.39-3.91-7.63-3.91-7.63.74.37,1.53,0,1.53,0-2.27-2.11-3.74-9.47-3.74-9.47,0,0-1.48,7.35-3.74,9.47,0,0,.79.37,1.53,0,0,0-1.13,5.24-3.91,7.63,0,0,2.27.46,3.23-.37,0,0-1.59,5.88-6.12,8.64,0,0,2.55,1.56,4.59,1.01,0,0-1.53,5.15-6.18,8,0,0,2.32,1.47,4.7.64,0,0-1.3,5.52-7.48,8.36,0,0,3.51,2.57,6.57,1.1,0,0-3.46,8.77-8.22,9.97h30.04c-4.76-1.2-8.22-9.97-8.22-9.97Z"/>
            <path class="cls-14" d="M444.25,228.53c3.36,1.65,7.21-1.24,7.21-1.24-6.77-3.21-8.2-9.41-8.2-9.41,2.61.93,5.16-.72,5.16-.72-5.1-3.21-6.77-9-6.77-9,2.24.62,5.03-1.14,5.03-1.14-4.97-3.1-6.71-9.72-6.71-9.72,1.06.93,3.54.41,3.54.41-3.05-2.69-4.29-8.58-4.29-8.58.81.41,1.68,0,1.68,0-2.49-2.38-4.1-10.65-4.1-10.65,0,0-1.62,8.27-4.1,10.65,0,0,.87.41,1.68,0,0,0-1.24,5.9-4.29,8.58,0,0,2.49.52,3.54-.41,0,0-1.74,6.62-6.71,9.72,0,0,2.8,1.76,5.03,1.14,0,0-1.68,5.79-6.77,9,0,0,2.55,1.65,5.16.72,0,0-1.43,6.21-8.2,9.41,0,0,3.85,2.9,7.21,1.24,0,0-3.79,9.87-9.01,11.21h32.94c-5.22-1.34-9.01-11.21-9.01-11.21Z"/>
            <path class="cls-14" d="M403.82,239.9c4.95,2.1,10.64-1.57,10.64-1.57-10-4.06-12.1-11.92-12.1-11.92,3.85,1.18,7.61-.92,7.61-.92-7.52-4.06-10-11.4-10-11.4,3.3.79,7.43-1.44,7.43-1.44-7.34-3.93-9.9-12.32-9.9-12.32,1.56,1.18,5.23.52,5.23.52-4.49-3.41-6.33-10.88-6.33-10.88,1.19.52,2.48,0,2.48,0-3.67-3.01-6.06-13.5-6.06-13.5,0,0-2.39,10.48-6.06,13.5,0,0,1.28.52,2.48,0,0,0-1.83,7.47-6.33,10.88,0,0,3.67.66,5.23-.52,0,0-2.57,8.39-9.9,12.32,0,0,4.13,2.23,7.43,1.44,0,0-2.48,7.34-10,11.4,0,0,3.76,2.1,7.61.92,0,0-2.11,7.86-12.1,11.92,0,0,5.69,3.67,10.64,1.57,0,0-5.59,12.5-13.3,14.21h48.61c-7.7-1.7-13.3-14.21-13.3-14.21Z"/>
            <path class="cls-14" d="M362.5,247.77c4.95,2.13,10.64-1.6,10.64-1.6-10-4.14-12.1-12.14-12.1-12.14,3.85,1.2,7.61-.93,7.61-.93-7.52-4.14-10-11.61-10-11.61,3.3.8,7.43-1.47,7.43-1.47-7.34-4-9.9-12.54-9.9-12.54,1.56,1.2,5.23.53,5.23.53-4.49-3.47-6.33-11.08-6.33-11.08,1.19.53,2.48,0,2.48,0-3.67-3.07-6.06-13.74-6.06-13.74,0,0-2.39,10.67-6.06,13.74,0,0,1.28.53,2.48,0,0,0-1.83,7.61-6.33,11.08,0,0,3.67.67,5.23-.53,0,0-2.57,8.54-9.9,12.54,0,0,4.13,2.27,7.43,1.47,0,0-2.48,7.47-10,11.61,0,0,3.76,2.13,7.61.93,0,0-2.11,8.01-12.1,12.14,0,0,5.69,3.74,10.64,1.6,0,0-5.59,12.73-13.3,14.47h48.61c-7.7-1.73-13.3-14.47-13.3-14.47Z"/>
            <path class="cls-14" d="M475.63,223.41c2.45,1.21,5.27-.91,5.27-.91-4.95-2.34-5.99-6.87-5.99-6.87,1.91.68,3.77-.53,3.77-.53-3.72-2.34-4.95-6.57-4.95-6.57,1.63.45,3.68-.83,3.68-.83-3.63-2.27-4.9-7.1-4.9-7.1.77.68,2.59.3,2.59.3-2.22-1.96-3.13-6.27-3.13-6.27.59.3,1.23,0,1.23,0-1.82-1.74-3-7.78-3-7.78,0,0-1.18,6.04-3,7.78,0,0,.64.3,1.23,0,0,0-.91,4.31-3.13,6.27,0,0,1.82.38,2.59-.3,0,0-1.27,4.83-4.9,7.1,0,0,2.04,1.28,3.68.83,0,0-1.23,4.23-4.95,6.57,0,0,1.86,1.21,3.77.53,0,0-1.04,4.53-5.99,6.87,0,0,2.81,2.12,5.27.91,0,0-2.77,7.21-6.58,8.19h24.06c-3.81-.98-6.58-8.19-6.58-8.19Z"/>
            <path class="cls-14" d="M313.77,226.87c2.45,1.21,5.27-.91,5.27-.91-4.95-2.34-5.99-6.87-5.99-6.87,1.91.68,3.77-.53,3.77-.53-3.72-2.34-4.95-6.57-4.95-6.57,1.63.45,3.68-.83,3.68-.83-3.63-2.27-4.9-7.1-4.9-7.1.77.68,2.59.3,2.59.3-2.22-1.96-3.13-6.27-3.13-6.27.59.3,1.23,0,1.23,0-1.82-1.74-3-7.78-3-7.78,0,0-1.18,6.04-3,7.78,0,0,.64.3,1.23,0,0,0-.91,4.31-3.13,6.27,0,0,1.82.38,2.59-.3,0,0-1.27,4.83-4.9,7.1,0,0,2.04,1.28,3.68.83,0,0-1.23,4.23-4.95,6.57,0,0,1.86,1.21,3.77.53,0,0-1.04,4.53-5.99,6.87,0,0,2.81,2.12,5.27.91,0,0-2.77,7.21-6.58,8.19h24.06c-3.81-.98-6.58-8.19-6.58-8.19Z"/>
            <path class="cls-13" d="M415.49,236.32c3.6,1.77,7.72-1.33,7.72-1.33-7.26-3.43-8.79-10.06-8.79-10.06,2.8.99,5.53-.77,5.53-.77-5.46-3.43-7.26-9.61-7.26-9.61,2.4.66,5.39-1.22,5.39-1.22-5.33-3.31-7.19-10.39-7.19-10.39,1.13.99,3.79.44,3.79.44-3.26-2.87-4.59-9.17-4.59-9.17.87.44,1.8,0,1.8,0-2.66-2.54-4.4-11.38-4.4-11.38,0,0-1.73,8.84-4.4,11.38,0,0,.93.44,1.8,0,0,0-1.33,6.3-4.59,9.17,0,0,2.66.55,3.79-.44,0,0-1.86,7.07-7.19,10.39,0,0,3,1.88,5.39,1.22,0,0-1.8,6.19-7.26,9.61,0,0,2.73,1.77,5.53.77,0,0-1.53,6.63-8.79,10.06,0,0,4.13,3.09,7.72,1.33,0,0-4.06,10.54-9.65,11.98h35.29c-5.59-1.44-9.65-11.98-9.65-11.98Z"/>
            <path class="cls-13" d="M455.45,228.56c3.46,1.41,7.38-1.21,7.38-1.21-6.99-2.73-8.54-8.2-8.54-8.2,2.69.78,5.28-.72,5.28-.72-5.27-2.76-7.07-7.85-7.07-7.85,2.3.51,5.15-1.09,5.15-1.09-5.14-2.67-7.02-8.5-7.02-8.5,1.1.81,3.64.31,3.64.31-3.16-2.33-4.52-7.53-4.52-7.53.83.35,1.72-.03,1.72-.03-2.58-2.07-4.36-9.36-4.36-9.36,0,0-1.55,7.35-4.06,9.49,0,0,.9.35,1.72-.03,0,0-1.19,5.24-4.28,7.66,0,0,2.56.42,3.63-.42,0,0-1.69,5.89-6.75,8.71,0,0,2.89,1.51,5.18.93,0,0-1.64,5.15-6.82,8.07,0,0,2.64,1.42,5.3.56,0,0-1.38,5.51-8.28,8.46,0,0,3.99,2.5,7.41.98,0,0-3.75,8.79-9.09,10.07l16.89-.26,16.89-.26c-5.37-1.11-9.4-9.78-9.4-9.78Z"/>
            <path class="cls-13" d="M331.19,236.13c3.47,1.64,7.37-1.39,7.37-1.39-7-3.18-8.56-9.51-8.56-9.51,2.69.91,5.28-.82,5.28-.82-5.28-3.2-7.09-9.11-7.09-9.11,2.3.6,5.14-1.25,5.14-1.25-5.15-3.1-7.04-9.85-7.04-9.85,1.1.94,3.64.37,3.64.37-3.17-2.71-4.53-8.72-4.53-8.72.84.41,1.72-.03,1.72-.03-2.59-2.4-4.38-10.84-4.38-10.84,0,0-1.53,8.5-4.04,10.97,0,0,.9.41,1.72-.03,0,0-1.18,6.06-4.26,8.86,0,0,2.56.49,3.63-.48,0,0-1.68,6.81-6.73,10.06,0,0,2.9,1.76,5.18,1.08,0,0-1.63,5.96-6.8,9.32,0,0,2.64,1.65,5.3.66,0,0-1.37,6.38-8.26,9.77,0,0,4,2.9,7.41,1.16,0,0-3.73,10.17-9.06,11.63l16.89-.26,16.89-.26c-5.38-1.29-9.42-11.34-9.42-11.34Z"/>
            <path class="cls-9" d="M381.77,243.67c4.25,1.67,9.12-1.25,9.12-1.25-8.57-3.24-10.38-9.5-10.38-9.5,3.3.94,6.53-.73,6.53-.73-6.45-3.24-8.57-9.08-8.57-9.08,2.83.63,6.37-1.15,6.37-1.15-6.29-3.13-8.49-9.81-8.49-9.81,1.34.94,4.48.42,4.48.42-3.85-2.71-5.42-8.66-5.42-8.66,1.02.42,2.12,0,2.12,0-3.14-2.4-5.19-10.75-5.19-10.75,0,0-2.05,8.35-5.19,10.75,0,0,1.1.42,2.12,0,0,0-1.57,5.95-5.42,8.66,0,0,3.14.52,4.48-.42,0,0-2.2,6.68-8.49,9.81,0,0,3.54,1.77,6.37,1.15,0,0-2.12,5.84-8.57,9.08,0,0,3.22,1.67,6.53.73,0,0-1.81,6.26-10.38,9.5,0,0,4.87,2.92,9.12,1.25,0,0-4.8,9.96-11.4,11.31h41.67c-6.6-1.36-11.4-11.31-11.4-11.31Z"/>
          </g>
          <g>
            <path class="cls-9" d="M561.96,221.79c2.79,1.26,5.99-.94,5.99-.94-5.63-2.44-6.82-7.16-6.82-7.16,2.17.71,4.29-.55,4.29-.55-4.24-2.44-5.63-6.84-5.63-6.84,1.86.47,4.19-.86,4.19-.86-4.13-2.36-5.58-7.39-5.58-7.39.88.71,2.95.31,2.95.31-2.53-2.04-3.57-6.53-3.57-6.53.67.31,1.4,0,1.4,0-2.07-1.81-3.41-8.1-3.41-8.1,0,0-1.35,6.29-3.41,8.1,0,0,.72.31,1.4,0,0,0-1.03,4.48-3.57,6.53,0,0,2.07.39,2.95-.31,0,0-1.45,5.03-5.58,7.39,0,0,2.33,1.34,4.19.86,0,0-1.4,4.4-5.63,6.84,0,0,2.12,1.26,4.29.55,0,0-1.19,4.72-6.82,7.16,0,0,3.2,2.2,5.99.94,0,0-3.15,7.5-7.49,8.52h27.39c-4.34-1.02-7.49-8.52-7.49-8.52Z"/>
            <path class="cls-14" d="M588.18,226.07c4.08,1.94,8.75-1.45,8.75-1.45-8.23-3.76-9.96-11.03-9.96-11.03,3.17,1.09,6.26-.85,6.26-.85-6.19-3.76-8.23-10.55-8.23-10.55,2.72.73,6.11-1.33,6.11-1.33-6.04-3.64-8.15-11.4-8.15-11.4,1.28,1.09,4.3.49,4.3.49-3.7-3.15-5.21-10.06-5.21-10.06.98.49,2.04,0,2.04,0-3.02-2.79-4.98-12.49-4.98-12.49,0,0-1.96,9.7-4.98,12.49,0,0,1.06.49,2.04,0,0,0-1.51,6.91-5.21,10.06,0,0,3.02.61,4.3-.49,0,0-2.11,7.76-8.15,11.4,0,0,3.4,2.06,6.11,1.33,0,0-2.04,6.79-8.23,10.55,0,0,3.09,1.94,6.26.85,0,0-1.74,7.27-9.96,11.03,0,0,4.68,3.39,8.75,1.45,0,0-4.6,11.57-10.94,13.14h40.01c-6.34-1.58-10.94-13.14-10.94-13.14Z"/>
            <path class="cls-14" d="M516.95,230.85c4.08,1.94,8.75-1.45,8.75-1.45-8.23-3.76-9.96-11.03-9.96-11.03,3.17,1.09,6.26-.85,6.26-.85-6.19-3.76-8.23-10.55-8.23-10.55,2.72.73,6.11-1.33,6.11-1.33-6.04-3.64-8.15-11.4-8.15-11.4,1.28,1.09,4.3.48,4.3.48-3.7-3.15-5.21-10.06-5.21-10.06.98.48,2.04,0,2.04,0-3.02-2.79-4.98-12.49-4.98-12.49,0,0-1.96,9.7-4.98,12.49,0,0,1.06.48,2.04,0,0,0-1.51,6.91-5.21,10.06,0,0,3.02.61,4.3-.48,0,0-2.11,7.76-8.15,11.4,0,0,3.4,2.06,6.11,1.33,0,0-2.04,6.79-8.23,10.55,0,0,3.09,1.94,6.26.85,0,0-1.74,7.27-9.96,11.03,0,0,4.68,3.39,8.75,1.45,0,0-4.6,11.57-10.94,13.14h40.01c-6.34-1.58-10.94-13.14-10.94-13.14Z"/>
            <path class="cls-14" d="M617.29,218.02c3.36,1.81,7.21-1.36,7.21-1.36-6.77-3.51-8.2-10.3-8.2-10.3,2.61,1.02,5.16-.79,5.16-.79-5.1-3.51-6.77-9.85-6.77-9.85,2.24.68,5.03-1.25,5.03-1.25-4.97-3.4-6.71-10.64-6.71-10.64,1.06,1.02,3.54.45,3.54.45-3.05-2.94-4.29-9.4-4.29-9.4.81.45,1.68,0,1.68,0-2.49-2.6-4.1-11.66-4.1-11.66,0,0-1.62,9.06-4.1,11.66,0,0,.87.45,1.68,0,0,0-1.24,6.45-4.29,9.4,0,0,2.49.57,3.54-.45,0,0-1.74,7.25-6.71,10.64,0,0,2.8,1.92,5.03,1.25,0,0-1.68,6.34-6.77,9.85,0,0,2.55,1.81,5.16.79,0,0-1.43,6.79-8.2,10.3,0,0,3.85,3.17,7.21,1.36,0,0-3.79,10.8-9.01,12.27h32.94c-5.22-1.47-9.01-12.27-9.01-12.27Z"/>
            <path class="cls-14" d="M549.46,218.02c3.36,1.81,7.21-1.36,7.21-1.36-6.77-3.51-8.2-10.3-8.2-10.3,2.61,1.02,5.16-.79,5.16-.79-5.1-3.51-6.77-9.85-6.77-9.85,2.24.68,5.03-1.25,5.03-1.25-4.97-3.4-6.71-10.64-6.71-10.64,1.06,1.02,3.54.45,3.54.45-3.04-2.94-4.29-9.4-4.29-9.4.81.45,1.68,0,1.68,0-2.49-2.6-4.1-11.66-4.1-11.66,0,0-1.62,9.06-4.1,11.66,0,0,.87.45,1.68,0,0,0-1.24,6.45-4.29,9.4,0,0,2.49.57,3.54-.45,0,0-1.74,7.25-6.71,10.64,0,0,2.8,1.92,5.03,1.25,0,0-1.68,6.34-6.77,9.85,0,0,2.55,1.81,5.16.79,0,0-1.43,6.79-8.2,10.3,0,0,3.85,3.17,7.21,1.36,0,0-3.79,10.8-9.01,12.27h32.94c-5.22-1.47-9.01-12.27-9.01-12.27Z"/>
            <path class="cls-13" d="M604.43,223.42c3.19,1.66,6.86-1.25,6.86-1.25-6.45-3.22-7.81-9.45-7.81-9.45,2.48.93,4.91-.73,4.91-.73-4.85-3.22-6.45-9.03-6.45-9.03,2.13.62,4.79-1.14,4.79-1.14-4.73-3.12-6.39-9.76-6.39-9.76,1.01.93,3.37.42,3.37.42-2.9-2.7-4.08-8.62-4.08-8.62.77.42,1.6,0,1.6,0-2.37-2.39-3.91-10.7-3.91-10.7,0,0-1.54,8.31-3.91,10.7,0,0,.83.42,1.6,0,0,0-1.18,5.92-4.08,8.62,0,0,2.37.52,3.37-.42,0,0-1.66,6.65-6.39,9.76,0,0,2.66,1.77,4.79,1.14,0,0-1.6,5.82-6.45,9.03,0,0,2.43,1.66,4.91.73,0,0-1.36,6.23-7.81,9.45,0,0,3.67,2.91,6.86,1.25,0,0-3.61,9.91-8.58,11.26h31.36c-4.97-1.35-8.58-11.26-8.58-11.26Z"/>
            <path class="cls-9" d="M525.91,217.07c3.32,1.51,7.06-1.28,7.06-1.28-6.7-2.92-8.19-8.74-8.19-8.74,2.58.84,5.05-.76,5.05-.76-5.05-2.94-6.78-8.38-6.78-8.38,2.2.55,4.92-1.15,4.92-1.15-4.93-2.85-6.73-9.06-6.73-9.06,1.05.86,3.48.34,3.48.34-3.03-2.49-4.33-8.02-4.33-8.02.8.38,1.65-.03,1.65-.03-2.47-2.2-4.18-9.98-4.18-9.98,0,0-1.47,7.82-3.87,10.1,0,0,.86.38,1.65-.03,0,0-1.13,5.57-4.08,8.15,0,0,2.45.45,3.47-.44,0,0-1.61,6.26-6.44,9.26,0,0,2.77,1.61,4.96,1,0,0-1.56,5.48-6.52,8.58,0,0,2.53,1.52,5.07.6,0,0-1.31,5.87-7.91,8.99,0,0,3.82,2.67,7.09,1.06,0,0-3.58,9.36-8.68,10.7l16.17-.25,16.17-.25c-5.14-1.19-9.01-10.43-9.01-10.43Z"/>
            <path class="cls-13" d="M573.37,228.17c3.52,1.65,7.57-1.24,7.57-1.24-7.11-3.2-8.62-9.4-8.62-9.4,2.74.93,5.42-.72,5.42-.72-5.35-3.2-7.11-8.98-7.11-8.98,2.35.62,5.29-1.14,5.29-1.14-5.22-3.1-7.05-9.71-7.05-9.71,1.11.93,3.72.41,3.72.41-3.2-2.68-4.5-8.57-4.5-8.57.85.41,1.76,0,1.76,0-2.61-2.38-4.31-10.64-4.31-10.64,0,0-1.7,8.26-4.31,10.64,0,0,.91.41,1.76,0,0,0-1.31,5.89-4.5,8.57,0,0,2.61.52,3.72-.41,0,0-1.83,6.61-7.05,9.71,0,0,2.94,1.76,5.29,1.14,0,0-1.76,5.78-7.11,8.98,0,0,2.68,1.65,5.42.72,0,0-1.5,6.2-8.62,9.4,0,0,4.05,2.89,7.57,1.24,0,0-3.98,9.85-9.46,11.19h34.6c-5.48-1.34-9.46-11.19-9.46-11.19Z"/>
            <path class="cls-13" d="M535.86,219.98c2.99,1.4,6.41-1.05,6.41-1.05-6.03-2.71-7.3-7.96-7.3-7.96,2.32.79,4.59-.61,4.59-.61-4.53-2.71-6.03-7.61-6.03-7.61,1.99.52,4.48-.96,4.48-.96-4.42-2.62-5.97-8.22-5.97-8.22.94.79,3.15.35,3.15.35-2.71-2.27-3.82-7.26-3.82-7.26.72.35,1.49,0,1.49,0-2.21-2.01-3.65-9.01-3.65-9.01,0,0-1.44,7-3.65,9.01,0,0,.77.35,1.49,0,0,0-1.11,4.99-3.82,7.26,0,0,2.21.44,3.15-.35,0,0-1.55,5.6-5.97,8.22,0,0,2.49,1.49,4.48.96,0,0-1.49,4.9-6.03,7.61,0,0,2.27,1.4,4.59.61,0,0-1.27,5.25-7.3,7.96,0,0,3.43,2.45,6.41,1.05,0,0-3.37,8.35-8.02,9.48h29.31c-4.64-1.14-8.02-9.48-8.02-9.48Z"/>
            <path class="cls-9" d="M593.38,225.79c2.57,1.18,5.52-.88,5.52-.88-5.18-2.28-6.28-6.69-6.28-6.69,2,.66,3.95-.51,3.95-.51-3.9-2.28-5.18-6.39-5.18-6.39,1.71.44,3.85-.81,3.85-.81-3.8-2.2-5.14-6.91-5.14-6.91.81.66,2.71.29,2.71.29-2.33-1.91-3.28-6.1-3.28-6.1.62.29,1.28,0,1.28,0-1.9-1.69-3.14-7.57-3.14-7.57,0,0-1.24,5.88-3.14,7.57,0,0,.67.29,1.28,0,0,0-.95,4.19-3.28,6.1,0,0,1.9.37,2.71-.29,0,0-1.33,4.7-5.14,6.91,0,0,2.14,1.25,3.85.81,0,0-1.28,4.11-5.18,6.39,0,0,1.95,1.18,3.95.51,0,0-1.09,4.41-6.28,6.69,0,0,2.95,2.06,5.52.88,0,0-2.9,7.01-6.89,7.97h25.2c-3.99-.96-6.89-7.97-6.89-7.97Z"/>
            <path class="cls-9" d="M627.62,218.25c2.57,1.24,5.52-.93,5.52-.93-5.18-2.39-6.28-7.02-6.28-7.02,2,.69,3.95-.54,3.95-.54-3.9-2.39-5.18-6.72-5.18-6.72,1.71.46,3.85-.85,3.85-.85-3.8-2.32-5.14-7.26-5.14-7.26.81.69,2.71.31,2.71.31-2.33-2.01-3.28-6.41-3.28-6.41.62.31,1.28,0,1.28,0-1.9-1.78-3.14-7.95-3.14-7.95,0,0-1.24,6.18-3.14,7.95,0,0,.67.31,1.28,0,0,0-.95,4.4-3.28,6.41,0,0,1.9.39,2.71-.31,0,0-1.33,4.94-5.14,7.26,0,0,2.14,1.31,3.85.85,0,0-1.28,4.32-5.18,6.72,0,0,1.95,1.23,3.95.54,0,0-1.09,4.63-6.28,7.02,0,0,2.95,2.16,5.52.93,0,0-2.9,7.37-6.89,8.37h25.2c-3.99-1-6.89-8.37-6.89-8.37Z"/>
          </g>
          <g>
            <path class="cls-14" d="M248.12,219.4c3.49,1.5,7.5-1.12,7.5-1.12-7.04-2.91-8.53-8.53-8.53-8.53,2.71.84,5.36-.66,5.36-.66-5.3-2.91-7.04-8.15-7.04-8.15,2.33.56,5.23-1.03,5.23-1.03-5.17-2.81-6.98-8.81-6.98-8.81,1.1.84,3.68.37,3.68.37-3.17-2.44-4.46-7.78-4.46-7.78.84.38,1.74,0,1.74,0-2.58-2.16-4.27-9.65-4.27-9.65,0,0-1.68,7.5-4.27,9.65,0,0,.9.38,1.74,0,0,0-1.29,5.34-4.46,7.78,0,0,2.58.47,3.68-.37,0,0-1.81,6-6.98,8.81,0,0,2.91,1.59,5.23,1.03,0,0-1.74,5.25-7.04,8.15,0,0,2.65,1.5,5.36.66,0,0-1.49,5.62-8.53,8.53,0,0,4.01,2.62,7.5,1.12,0,0-3.94,8.94-9.37,10.16h34.26c-5.43-1.22-9.37-10.16-9.37-10.16Z"/>
            <path class="cls-14" d="M276.36,227.16c2.76,1.11,5.93-.83,5.93-.83-5.57-2.14-6.74-6.29-6.74-6.29,2.15.62,4.24-.48,4.24-.48-4.19-2.14-5.57-6.01-5.57-6.01,1.84.41,4.14-.76,4.14-.76-4.09-2.07-5.52-6.5-5.52-6.5.87.62,2.91.28,2.91.28-2.5-1.8-3.52-5.74-3.52-5.74.66.28,1.38,0,1.38,0-2.04-1.59-3.37-7.12-3.37-7.12,0,0-1.33,5.53-3.37,7.12,0,0,.72.28,1.38,0,0,0-1.02,3.94-3.52,5.74,0,0,2.04.35,2.91-.28,0,0-1.43,4.42-5.52,6.5,0,0,2.3,1.18,4.14.76,0,0-1.38,3.87-5.57,6.01,0,0,2.09,1.11,4.24.48,0,0-1.17,4.15-6.74,6.29,0,0,3.17,1.94,5.93.83,0,0-3.12,6.6-7.41,7.49h27.08c-4.29-.9-7.41-7.49-7.41-7.49Z"/>
            <path class="cls-13" d="M259.04,223.97c2.93,1.16,6.3-.87,6.3-.87-5.92-2.26-7.16-6.62-7.16-6.62,2.28.65,4.5-.51,4.5-.51-4.45-2.26-5.92-6.33-5.92-6.33,1.95.44,4.4-.8,4.4-.8-4.34-2.18-5.86-6.84-5.86-6.84.92.65,3.09.29,3.09.29-2.66-1.89-3.74-6.04-3.74-6.04.71.29,1.47,0,1.47,0-2.17-1.67-3.58-7.49-3.58-7.49,0,0-1.41,5.82-3.58,7.49,0,0,.76.29,1.47,0,0,0-1.09,4.15-3.74,6.04,0,0,2.17.36,3.09-.29,0,0-1.52,4.66-5.86,6.84,0,0,2.44,1.24,4.4.8,0,0-1.47,4.07-5.92,6.33,0,0,2.22,1.16,4.5.51,0,0-1.25,4.37-7.16,6.62,0,0,3.36,2.04,6.3.87,0,0-3.31,6.94-7.87,7.89h28.77c-4.56-.95-7.87-7.89-7.87-7.89Z"/>
            <path class="cls-9" d="M235.52,213.57c2.87,1.23,6.17-.93,6.17-.93-5.8-2.39-7.02-7.02-7.02-7.02,2.23.69,4.42-.54,4.42-.54-4.36-2.39-5.8-6.71-5.8-6.71,1.92.46,4.31-.85,4.31-.85-4.26-2.32-5.75-7.25-5.75-7.25.9.69,3.03.31,3.03.31-2.61-2.01-3.67-6.41-3.67-6.41.69.31,1.44,0,1.44,0-2.13-1.78-3.51-7.95-3.51-7.95,0,0-1.39,6.17-3.51,7.95,0,0,.74.31,1.44,0,0,0-1.06,4.4-3.67,6.41,0,0,2.13.39,3.03-.31,0,0-1.49,4.94-5.75,7.25,0,0,2.39,1.31,4.31.85,0,0-1.44,4.32-5.8,6.71,0,0,2.18,1.23,4.42.54,0,0-1.22,4.63-7.02,7.02,0,0,3.3,2.16,6.17.93,0,0-3.25,7.36-7.72,8.37h28.21c-4.47-1-7.72-8.37-7.72-8.37Z"/>
            <path class="cls-9" d="M272.24,223.8c2.65,1.14,5.69-.85,5.69-.85-5.35-2.21-6.47-6.47-6.47-6.47,2.06.64,4.07-.5,4.07-.5-4.02-2.21-5.35-6.19-5.35-6.19,1.77.43,3.97-.78,3.97-.78-3.92-2.13-5.3-6.69-5.3-6.69.83.64,2.8.28,2.8.28-2.4-1.85-3.38-5.9-3.38-5.9.64.28,1.32,0,1.32,0-1.96-1.64-3.24-7.33-3.24-7.33,0,0-1.28,5.69-3.24,7.33,0,0,.69.28,1.32,0,0,0-.98,4.05-3.38,5.9,0,0,1.96.36,2.8-.28,0,0-1.37,4.55-5.3,6.69,0,0,2.21,1.21,3.97.78,0,0-1.32,3.98-5.35,6.19,0,0,2.01,1.14,4.07.5,0,0-1.13,4.27-6.47,6.47,0,0,3.04,1.99,5.69.85,0,0-2.99,6.79-7.11,7.71h26c-4.12-.92-7.11-7.71-7.11-7.71Z"/>
            <path class="cls-13" d="M225.18,213.53c3.29,1.69,7.08-1.27,7.08-1.27-6.65-3.28-8.05-9.62-8.05-9.62,2.56.95,5.06-.74,5.06-.74-5-3.28-6.65-9.2-6.65-9.2,2.2.63,4.94-1.16,4.94-1.16-4.88-3.17-6.59-9.94-6.59-9.94,1.04.95,3.48.42,3.48.42-2.99-2.75-4.21-8.77-4.21-8.77.79.42,1.65,0,1.65,0-2.44-2.43-4.03-10.89-4.03-10.89,0,0-1.59,8.46-4.03,10.89,0,0,.85.42,1.65,0,0,0-1.22,6.03-4.21,8.77,0,0,2.44.53,3.48-.42,0,0-1.71,6.77-6.59,9.94,0,0,2.75,1.8,4.94,1.16,0,0-1.65,5.92-6.65,9.2,0,0,2.5,1.69,5.06.74,0,0-1.4,6.34-8.05,9.62,0,0,3.78,2.96,7.08,1.27,0,0-3.72,10.09-8.85,11.46h32.34c-5.13-1.37-8.85-11.46-8.85-11.46Z"/>
          </g>
          <g>
            <path class="cls-14" d="M671.07,193.04c-3.49,1.5-7.5-1.12-7.5-1.12,7.04-2.91,8.53-8.53,8.53-8.53-2.71.84-5.36-.66-5.36-.66,5.3-2.91,7.04-8.15,7.04-8.15-2.33.56-5.23-1.03-5.23-1.03,5.17-2.81,6.98-8.81,6.98-8.81-1.1.84-3.68.37-3.68.37,3.17-2.44,4.46-7.78,4.46-7.78-.84.38-1.74,0-1.74,0,2.58-2.16,4.27-9.65,4.27-9.65,0,0,1.68,7.5,4.27,9.65,0,0-.9.38-1.74,0,0,0,1.29,5.34,4.46,7.78,0,0-2.58.47-3.68-.37,0,0,1.81,6,6.98,8.81,0,0-2.91,1.59-5.23,1.03,0,0,1.74,5.25,7.04,8.15,0,0-2.65,1.5-5.36.66,0,0,1.49,5.62,8.53,8.53,0,0-4.01,2.62-7.5,1.12,0,0,3.94,8.94,9.37,10.16h-34.26c5.43-1.22,9.37-10.16,9.37-10.16Z"/>
            <path class="cls-14" d="M642.83,200.8c-2.76,1.11-5.93-.83-5.93-.83,5.57-2.14,6.74-6.29,6.74-6.29-2.15.62-4.24-.48-4.24-.48,4.19-2.14,5.57-6.01,5.57-6.01-1.84.41-4.14-.76-4.14-.76,4.09-2.07,5.52-6.5,5.52-6.5-.87.62-2.91.28-2.91.28,2.5-1.8,3.52-5.74,3.52-5.74-.66.28-1.38,0-1.38,0,2.04-1.59,3.37-7.12,3.37-7.12,0,0,1.33,5.53,3.37,7.12,0,0-.72.28-1.38,0,0,0,1.02,3.94,3.52,5.74,0,0-2.04.35-2.91-.28,0,0,1.43,4.42,5.52,6.5,0,0-2.3,1.18-4.14.76,0,0,1.38,3.87,5.57,6.01,0,0-2.09,1.11-4.24.48,0,0,1.17,4.15,6.74,6.29,0,0-3.17,1.94-5.93.83,0,0,3.12,6.6,7.41,7.49h-27.08c4.29-.9,7.41-7.49,7.41-7.49Z"/>
            <path class="cls-13" d="M660.15,197.62c-2.93,1.16-6.3-.87-6.3-.87,5.92-2.26,7.16-6.62,7.16-6.62-2.28.65-4.5-.51-4.5-.51,4.45-2.26,5.92-6.33,5.92-6.33-1.95.44-4.4-.8-4.4-.8,4.34-2.18,5.86-6.84,5.86-6.84-.92.65-3.09.29-3.09.29,2.66-1.89,3.74-6.04,3.74-6.04-.71.29-1.47,0-1.47,0,2.17-1.67,3.58-7.49,3.58-7.49,0,0,1.41,5.82,3.58,7.49,0,0-.76.29-1.47,0,0,0,1.09,4.15,3.74,6.04,0,0-2.17.36-3.09-.29,0,0,1.52,4.66,5.86,6.84,0,0-2.44,1.24-4.4.8,0,0,1.47,4.07,5.92,6.33,0,0-2.22,1.16-4.5.51,0,0,1.25,4.37,7.16,6.62,0,0-3.36,2.04-6.3.87,0,0,3.31,6.94,7.87,7.89h-28.77c4.56-.95,7.87-7.89,7.87-7.89Z"/>
            <path class="cls-9" d="M683.67,187.21c-2.87,1.23-6.17-.93-6.17-.93,5.8-2.39,7.02-7.02,7.02-7.02-2.23.69-4.42-.54-4.42-.54,4.36-2.39,5.8-6.71,5.8-6.71-1.92.46-4.31-.85-4.31-.85,4.26-2.32,5.75-7.25,5.75-7.25-.9.69-3.03.31-3.03.31,2.61-2.01,3.67-6.41,3.67-6.41-.69.31-1.44,0-1.44,0,2.13-1.78,3.51-7.95,3.51-7.95,0,0,1.39,6.17,3.51,7.95,0,0-.74.31-1.44,0,0,0,1.06,4.4,3.67,6.41,0,0-2.13.39-3.03-.31,0,0,1.49,4.94,5.75,7.25,0,0-2.39,1.31-4.31.85,0,0,1.44,4.32,5.8,6.71,0,0-2.18,1.23-4.42.54,0,0,1.22,4.63,7.02,7.02,0,0-3.3,2.16-6.17.93,0,0,3.25,7.36,7.72,8.37h-28.21c4.47-1,7.72-8.37,7.72-8.37Z"/>
            <path class="cls-9" d="M646.95,197.44c-2.65,1.14-5.69-.85-5.69-.85,5.35-2.21,6.47-6.47,6.47-6.47-2.06.64-4.07-.5-4.07-.5,4.02-2.21,5.35-6.19,5.35-6.19-1.77.43-3.97-.78-3.97-.78,3.92-2.13,5.3-6.69,5.3-6.69-.83.64-2.8.28-2.8.28,2.4-1.85,3.38-5.9,3.38-5.9-.64.28-1.32,0-1.32,0,1.96-1.64,3.24-7.33,3.24-7.33,0,0,1.28,5.69,3.24,7.33,0,0-.69.28-1.32,0,0,0,.98,4.05,3.38,5.9,0,0-1.96.36-2.8-.28,0,0,1.37,4.55,5.3,6.69,0,0-2.21,1.21-3.97.78,0,0,1.32,3.98,5.35,6.19,0,0-2.01,1.14-4.07.5,0,0,1.13,4.27,6.47,6.47,0,0-3.04,1.99-5.69.85,0,0,2.99,6.79,7.11,7.71h-26c4.12-.92,7.11-7.71,7.11-7.71Z"/>
            <path class="cls-13" d="M694.01,187.17c-3.29,1.69-7.08-1.27-7.08-1.27,6.65-3.28,8.05-9.62,8.05-9.62-2.56.95-5.06-.74-5.06-.74,5-3.28,6.65-9.2,6.65-9.2-2.2.63-4.94-1.16-4.94-1.16,4.88-3.17,6.59-9.94,6.59-9.94-1.04.95-3.48.42-3.48.42,2.99-2.75,4.21-8.77,4.21-8.77-.79.42-1.65,0-1.65,0,2.44-2.43,4.03-10.89,4.03-10.89,0,0,1.59,8.46,4.03,10.89,0,0-.85.42-1.65,0,0,0,1.22,6.03,4.21,8.77,0,0-2.44.53-3.48-.42,0,0,1.71,6.77,6.59,9.94,0,0-2.75,1.8-4.94,1.16,0,0,1.65,5.92,6.65,9.2,0,0-2.5,1.69-5.06.74,0,0,1.4,6.34,8.05,9.62,0,0-3.78,2.96-7.08,1.27,0,0,3.72,10.09,8.85,11.46h-32.34c5.13-1.37,8.85-11.46,8.85-11.46Z"/>
          </g>
          <g>
            <path class="cls-14" d="M143.36,198.33c3.01,1.16,6.46-.87,6.46-.87-6.07-2.25-7.35-6.59-7.35-6.59,2.34.65,4.62-.51,4.62-.51-4.57-2.25-6.07-6.3-6.07-6.3,2,.43,4.51-.8,4.51-.8-4.45-2.17-6.01-6.81-6.01-6.81.95.65,3.17.29,3.17.29-2.73-1.88-3.84-6.01-3.84-6.01.72.29,1.5,0,1.5,0-2.23-1.67-3.68-7.46-3.68-7.46,0,0-1.45,5.79-3.68,7.46,0,0,.78.29,1.5,0,0,0-1.11,4.13-3.84,6.01,0,0,2.23.36,3.17-.29,0,0-1.56,4.64-6.01,6.81,0,0,2.51,1.23,4.51.8,0,0-1.5,4.06-6.07,6.3,0,0,2.28,1.16,4.62.51,0,0-1.28,4.35-7.35,6.59,0,0,3.45,2.03,6.46.87,0,0-3.4,6.91-8.07,7.85h29.51c-4.68-.94-8.07-7.85-8.07-7.85Z"/>
            <path class="cls-13" d="M181,206.96c3.01,1.31,6.46-.99,6.46-.99-6.07-2.55-7.35-7.48-7.35-7.48,2.34.74,4.62-.58,4.62-.58-4.57-2.55-6.07-7.15-6.07-7.15,2,.49,4.51-.9,4.51-.9-4.45-2.46-6.01-7.72-6.01-7.72.95.74,3.17.33,3.17.33-2.73-2.14-3.84-6.82-3.84-6.82.72.33,1.5,0,1.5,0-2.23-1.89-3.68-8.46-3.68-8.46,0,0-1.45,6.57-3.68,8.46,0,0,.78.33,1.5,0,0,0-1.11,4.68-3.84,6.82,0,0,2.23.41,3.17-.33,0,0-1.56,5.26-6.01,7.72,0,0,2.51,1.4,4.51.9,0,0-1.5,4.6-6.07,7.15,0,0,2.28,1.31,4.62.58,0,0-1.28,4.93-7.35,7.48,0,0,3.45,2.3,6.46.99,0,0-3.4,7.84-8.07,8.91h29.51c-4.68-1.07-8.07-8.91-8.07-8.91Z"/>
            <path class="cls-14" d="M170.44,202.52c3.38,1.59,7.27-1.19,7.27-1.19-6.83-3.09-8.27-9.06-8.27-9.06,2.63.9,5.2-.7,5.2-.7-5.14-3.09-6.83-8.66-6.83-8.66,2.26.6,5.08-1.1,5.08-1.1-5.01-2.99-6.77-9.36-6.77-9.36,1.07.9,3.57.4,3.57.4-3.07-2.59-4.32-8.26-4.32-8.26.81.4,1.69,0,1.69,0-2.51-2.29-4.14-10.26-4.14-10.26,0,0-1.63,7.97-4.14,10.26,0,0,.88.4,1.69,0,0,0-1.25,5.68-4.32,8.26,0,0,2.51.5,3.57-.4,0,0-1.75,6.37-6.77,9.36,0,0,2.82,1.69,5.08,1.1,0,0-1.69,5.58-6.83,8.66,0,0,2.57,1.59,5.2.7,0,0-1.44,5.97-8.27,9.06,0,0,3.89,2.79,7.27,1.19,0,0-3.82,9.5-9.09,10.79h33.22c-5.26-1.29-9.09-10.79-9.09-10.79Z"/>
            <path class="cls-9" d="M157.27,198.18c3.86,1.77,8.3-1.33,8.3-1.33-7.8-3.43-9.44-10.06-9.44-10.06,3,.99,5.94-.77,5.94-.77-5.87-3.43-7.8-9.61-7.8-9.61,2.58.66,5.79-1.22,5.79-1.22-5.72-3.31-7.73-10.39-7.73-10.39,1.22.99,4.08.44,4.08.44-3.51-2.87-4.94-9.17-4.94-9.17.93.44,1.93,0,1.93,0-2.86-2.54-4.72-11.38-4.72-11.38,0,0-1.86,8.84-4.72,11.38,0,0,1,.44,1.93,0,0,0-1.43,6.3-4.94,9.17,0,0,2.86.55,4.08-.44,0,0-2,7.07-7.73,10.39,0,0,3.22,1.88,5.79,1.22,0,0-1.93,6.19-7.8,9.61,0,0,2.93,1.77,5.94.77,0,0-1.65,6.63-9.44,10.06,0,0,4.44,3.09,8.3,1.33,0,0-4.36,10.54-10.37,11.98h37.92c-6.01-1.44-10.37-11.98-10.37-11.98Z"/>
          </g>
        </g>
        <path class="cls-23" d="M193.76,339.7v63h750v-214.74s-511.78-21.44-750,151.74Z"/>
        <path class="cls-21" d="M-219.6,195.34v153.01h750v-44.89C181,159.17-219.6,195.34-219.6,195.34Z"/>
        <path class="cls-4" d="M-52.56,278.23v211.39c5.51-30.51,124.45-52.46,185.11-30.31,136.82,51.31,282.76,68.41,430.98,38.77,85.5-17.47,147.77-38.96,239.02-13.92v-205.93H-52.56Z"/>
        <path class="cls-26" d="M-52.56,278.23v211.39c5.51-30.51,124.45-52.46,185.11-30.31,136.82,51.31,282.76,68.41,430.98,38.76,85.5-17.47,147.77-38.96,239.02-13.92v-205.93H-52.56ZM635.4,339.69s-38.87,28.52-42.04,28.52-29.15,5.94-78.78,6.73c-68.89,1.1-35.44,23.53-72.48,20.47-22.45-1.85-70.43-5.29-94.11,0-23.68,5.29-68.67,1.49-126.31,3.06-57.64,1.57-88.44,9.91-96.27,7.3-7.83-2.61-5.22-8.87-3.47-20.19,1.75-11.32,1.38-15.29,3.47-19.74,2.09-4.45,24.06-22.4,30.78-21.06,6.72,1.34,28.7-2.67,44.35,0,15.65,2.67,81.91-2.15,118.51-5.11,36.6-2.96,10.36-17.39,0-21.83-10.36-4.44-25.64-11.74-49.15-11.3-23.51.44-48.49-5.66-53.58-7.2-5.09-1.54-3.71-13.76,35.87-11.25,20.35,1.29,70.96,9.32,109.57,2.8,13.43-2.27,61.04-.43,91.52,4,30.48,4.43,80.65-.78,138.04-4,57.39-3.22,44.09,48.78,44.09,48.78Z"/>
        <ellipse class="cls-20" cx="614.15" cy="320.67" rx="122.33" ry="7.97"/>
        <ellipse class="cls-20" cx="534.92" cy="345.48" rx="122.33" ry="7.97"/>
        <ellipse class="cls-20" cx="178.03" cy="372.68" rx="122.33" ry="7.97"/>
        <g class="cls-25">
          <polygon class="cls-17" points="0 144.71 750 109.77 750 97.56 0 115.42 0 144.71"/>
          <polygon class="cls-17" points="0 64.73 750 92.61 750 86.44 0 52.59 0 64.73"/>
        </g>
        <g>
          <rect class="cls-28" x="7.91" y="222.44" width="8.97" height="36.26" transform="translate(-.28 .01) rotate(-.07)"/>
          <path class="cls-3" d="M2.92,174.94l-4.37,6.56s-5.46,9.22-5.52,9.33c-3.33,5.63-5.7,10.89-10.31,15.76-5.38,5.69-11.08,11.06-17.08,16.08,7.89-.97,15.5-4.12,21.75-9.03-5.36,7.62-13.07,13.56-21.8,16.81,7.54,1.3,15.1-1.66,22.18-4.56-4.48,5.19-9.93,9.54-16,12.74,9.29.49,18-4.11,26.16-8.58-1.76,3.65-3.51,7.3-5.27,10.95,4.45-2.11,8.44-5.19,11.6-8.96,1.28,3.83,2.79,7.59,4.51,11.25.94-4.31,1.87-8.62,2.81-12.92,3.56,4.65,7.96,8.65,12.92,11.75-.73-4.38-1.45-8.77-2.18-13.15,4.7,4.78,10.54,8.44,16.89,10.6-1.06-4.4-2.48-8.71-4.24-12.87,5.29,4.58,11.63,7.95,18.38,9.79-2.46-3.45-5.3-6.63-8.46-9.47,4.85,2.12,10.15,3.21,15.44,3.17-3.27-2.44-6.54-4.87-9.82-7.31,4.53.94,9.25.99,13.8.16-6.34-4.75-12.69-9.5-19.03-14.26,3.95,1.38,8.15,2.61,12.28,1.9-1.28.22-6.06-4.25-7.2-5.08-2.62-1.91-5.19-3.89-7.66-5.99-4.84-4.12-9.33-8.75-12.7-14.17-5.23-8.42-9.12-17.74-13.3-26.74l-5.39-20.76-8.38,37.01Z"/>
          <path class="cls-22" d="M3.31,145.24c-2.22,8.46-5.4,16.35-12.53,21.77,2.4.01,4.79-.38,7.06-1.16-2.68,5.35-6.47,10.4-11.45,13.74,1.88.25,6.71.39,8.12-1.33-2.14,2.62-4.5,5.02-7.31,6.91-1.38.93-2.84,1.73-4.35,2.42-1.04.47-3.36,1.81-4.51,1.63,3.36.55,6.9-.03,9.91-1.62-4.66,3.88-10.36,6.51-16.33,7.54,3.78,2.01,8.31,1.73,12.58,1.41-4.38,2.64-9.06,4.79-13.91,6.4,6.47,1.73,14.16,1.4,19.7-2.75-4.45,5.39-9.42,10.35-14.83,14.78,7.92-1.73,15.49-5.08,22.09-9.79.45,3.23.69,6.48.72,9.74,1.3-1.89,2.61-3.79,3.91-5.68.92,3.84,1.84,7.69,2.76,11.53,3.21-5.63,5.7-11.67,7.4-17.92,3.54,5.79,7.9,11.09,12.91,15.67.09-5.08-.65-10.18-2.19-15.03,3.84,4.5,9.53,7.37,15.44,7.78-3.07-2.65-6.02-5.43-8.85-8.33,4.21,2.1,8.88,3.25,13.58,3.34-2.04-1.63-3.94-3.43-5.68-5.38,5.61,1.85,11.85,1.74,17.39-.31-4.71-1.73-9.16-4.18-13.13-7.25,3.7,1.18,7.91.52,11.14-1.63-4.97-1.45-9.6-4.04-13.44-7.52,1.85.61,3.91.55,5.72-.17-4.8-.98-9.21-3.76-12.16-7.67,2.86.87,6.02.73,8.8-.38-.97.39-4.7-2.85-5.45-3.47-1.88-1.56-3.54-3.4-4.9-5.43-2.64-3.92-5.74-7.54-7.57-11.99,1.49,1.7,3.16,3.24,4.98,4.59-3.4-5.79-6.23-11.72-8.79-17.91l-9.01-26.24s-7.81,29.7-7.81,29.7Z"/>
          <path class="cls-22" d="M32.28,180.56c-3.07-1.53-5.79-3.74-7.91-6.44,2.23,3.41,4.46,6.82,6.69,10.23-4.7-1.07-9.05-3.65-12.24-7.26,1.19,3.65,1.99,7.43,2.39,11.25-4.65-2.19-8.65-5.73-11.41-10.08-.51,4.06-1.58,8.04-3.17,11.81-2.16-4.73-3.63-9.77-4.37-14.92-1.77,2.19-3.87,4.11-6.21,5.68-.15-1.27-.43-2.52-.83-3.73-2.41,3.05-4.65,5.86-7.92,8.06-1.38.93-2.84,1.73-4.35,2.42-1.04.47-3.36,1.81-4.51,1.63,3.36.55,6.9-.03,9.91-1.62-4.66,3.88-10.36,6.51-16.33,7.54,3.78,2.01,8.31,1.73,12.58,1.41-4.38,2.64-9.06,4.79-13.91,6.4,6.47,1.73,14.16,1.4,19.71-2.75-4.45,5.39-9.42,10.35-14.83,14.78,7.92-1.73,15.49-5.08,22.09-9.79.45,3.23.69,6.48.72,9.74,1.3-1.89,2.61-3.79,3.91-5.68.92,3.84,1.84,7.69,2.76,11.53,3.21-5.63,5.7-11.67,7.4-17.92,3.54,5.79,7.9,11.09,12.91,15.67.09-5.08-.65-10.18-2.19-15.03,3.84,4.5,9.53,7.37,15.44,7.78-3.07-2.65-6.02-5.43-8.85-8.33,4.21,2.1,8.88,3.25,13.58,3.34-2.04-1.63-3.94-3.43-5.68-5.38,5.61,1.85,11.85,1.74,17.39-.31-4.71-1.73-9.16-4.18-13.13-7.25,3.7,1.18,7.91.52,11.14-1.63-4.97-1.45-9.6-4.04-13.44-7.52,1.85.61,3.91.55,5.72-.17-1.68.67-6.15-2.28-7.46-3.19-3.17-2.18-5.78-5.42-7.74-8.69.3,1.72.34,7.51,2.16,8.41Z"/>
          <path class="cls-19" d="M27.83,210.57c6.09,3.54,13.42,4.89,20.36,3.75-2.52-1.7-4.87-3.65-7.01-5.81,3.71.65,7.45,1.14,11.21,1.44-3.27-1.4-6.21-3.58-8.5-6.3,1.83.28,3.67.57,5.5.85-1.22-.49-2.3-1.33-3.07-2.4-2.83.28-5.73-.1-8.4-1.11,1.65,1.83,3.4,3.58,5.23,5.25-4.45-.29-8.85-1.25-13.02-2.82,2.39,2.94,5.12,5.61,8.13,7.92-5.92.16-10.96-4.03-15.38-7.98,1.4,4.28,2.08,8.79,2.03,13.29-6.17-8.62-10.17-18.77-11.53-29.28,2.2,2.29,4.54,4.52,7.35,6.02,2.8,1.5,6.16,2.21,9.21,1.31-2.26-2.78-4.23-5.81-5.85-9.01,3.93,3.42,9.44,4.95,14.58,4.04-2.19-1.67-4.15-3.64-5.82-5.83,1.72.65,3.67.68,5.41.1-2.01-1.27-3.73-3.01-4.96-5.04.8.18,1.6.36,2.4.55-2.04-1.95-3.8-4.21-5.18-6.67-.21,2.53.19,5.1,1.17,7.44-2.41-1.12-4.59-2.74-6.36-4.71,1.48,2.97,3.16,5.85,5.03,8.6-4.58-1.19-8.78-3.82-11.84-7.43.55,3.35,1.11,6.69,1.66,10.04-5.97-5.43-12.49-16.91-9.23-25.13-.33.23.04.8.44.76.4-.05.66-.42.87-.76,2.13-3.55,3.27-7.68,3.27-11.82-.47,1.84-1.5,3.53-2.91,4.79-1.19-1.82-1.85-3.99-1.89-6.17-.81.58-1.61,1.16-2.42,1.74.73-6.22,1.39-12.46,1.97-18.7.29-3.12.56-6.24.82-9.37.13-1.56.32-3.13.37-4.69.03-.93-.17-2.61-.53-1.04-1.16,5.07-6.67,25.6-8.75,33-2.19,6.91-5.38,13.21-11.37,17.76,2.4.01,4.79-.38,7.06-1.16-2.68,5.35-6.47,10.4-11.45,13.74,1.66.22,5.62.35,7.49-.8-.99,1.22-1.98,2.38-3.07,3.47-1.12,1.06-2.31,2.05-3.6,2.92-1.38.93-2.84,1.73-4.35,2.42-.91.41-2.8,1.49-4.02,1.63-.14,0-.27.02-.38,0-.03,0-.07,0-.1,0,.86.14,1.72.2,2.59.2,2.48,0,4.95-.58,7.17-1.7-4.63,3.81-10.27,6.4-16.18,7.42,2.38,1.27,5.07,1.63,7.8,1.64,1.59.01,3.2-.1,4.77-.22-4.38,2.64-9.05,4.79-13.9,6.39,2.44.65,5.05,1.01,7.65.98,2.67-.02,5.33-.44,7.8-1.37-.98,1.37-2.06,2.72-3.31,4.04-5.38,5.69-11.08,11.06-17.08,16.08,7.89-.97,15.5-4.12,21.75-9.03-5.36,7.62-13.07,13.56-21.8,16.81,7.54,1.3,15.1-1.66,22.18-4.56-4.48,5.19-9.93,9.54-16,12.74,9.29.49,18-4.11,26.16-8.58-1.76,3.65-3.52,7.3-5.27,10.95,4.45-2.11,8.44-5.19,11.6-8.96,1.28,3.83,2.79,7.59,4.51,11.25.94-4.31,1.87-8.62,2.81-12.92,3.56,4.65,7.96,8.65,12.92,11.75-.73-4.38-1.45-8.77-2.18-13.15,2.39,2.43,5.07,4.56,7.95,6.36,1.49.93,3.03,1.77,4.62,2.51,1.03.47,2.21.77,3.28,1.13-.68-.22-2.61-5.14-3.06-6.07-1.18-2.4-2.24-4.85-3.18-7.35-1.84-4.9-3.22-9.97-4.11-15.13Z"/>
        </g>
        <g>
          <circle class="cls-8" cx="197.21" cy="32.61" r="78.24"/>
          <circle class="cls-7" cx="197.21" cy="32.61" r="52.61"/>
        </g>
        <path class="cls-17" d="M736.8,68.94c-40.88.06-81.76.12-122.65.18,16.67-1.61,33.34-3.22,50.01-4.83,1.84-.18,3.79-.39,5.27-1.5,1.13-.85,1.86-2.12,2.9-3.08,4.54-4.22,11.68-.79,17.77.38,2.1.4,4.57.37,6-1.21,1.04-1.16,1.23-2.81,1.67-4.31,2.02-6.9,11.09-10.62,17.38-7.14,1.6-8.83,9.07-16.29,17.91-17.88s18.44,2.8,23.02,10.52c2.59,4.37,5.25,7.21,3.5,11.98,2.99-2.63,6.79-4.74,10.75-4.35,3.96.39,7.69,4.18,6.82,8.06,19.58,1.7,39.16,3.41,58.73,5.11-21.36,1.07-42.72,2.14-64.08,3.22-1.52.08-3.16.19-4.34,1.15-1.06.86-1.57,2.26-2.62,3.12-1.36,1.12-3.3,1.11-5.06,1.05-9.07-.32-13.9-.48-22.97-.47Z"/>
        <path class="cls-17" d="M364.02,139.8c-40.88.06-81.76.12-122.65.18,16.67-1.61,33.34-3.22,50.01-4.83,1.84-.18,3.79-.39,5.27-1.5,1.13-.85,1.86-2.12,2.9-3.08,4.54-4.22,11.68-.79,17.77.38,2.1.4,4.57.37,6-1.21,1.04-1.16,1.23-2.81,1.67-4.31,2.02-6.9,11.09-10.62,17.38-7.14,1.6-8.83,9.07-16.29,17.91-17.88s18.44,2.8,23.02,10.52c2.59,4.37,5.25,7.21,3.5,11.98,2.99-2.63,6.79-4.74,10.75-4.35,3.96.39,7.69,4.18,6.82,8.06,19.58,1.7,39.16,3.41,58.73,5.11-21.36,1.07-42.72,2.14-64.08,3.22-1.52.08-3.16.19-4.34,1.15-1.06.86-1.57,2.26-2.62,3.12-1.36,1.12-3.3,1.11-5.06,1.05-9.07-.32-13.9-.48-22.97-.47Z"/>
        <path class="cls-17" d="M149.24,61.74c-40.88.06-81.76.12-122.65.18,16.67-1.61,33.34-3.22,50.01-4.83,1.84-.18,3.79-.39,5.27-1.5,1.13-.85,1.86-2.12,2.9-3.08,4.54-4.22,11.68-.79,17.77.38,2.1.4,4.57.37,6-1.21,1.04-1.16,1.23-2.81,1.67-4.31,2.02-6.9,11.09-10.62,17.38-7.14,1.6-8.83,9.07-16.29,17.91-17.88s18.44,2.8,23.02,10.52c2.59,4.37,5.25,7.21,3.5,11.98,2.99-2.63,6.79-4.74,10.75-4.35,3.96.39,7.69,4.18,6.82,8.06,19.58,1.7,39.16,3.41,58.73,5.11-21.36,1.07-42.72,2.14-64.08,3.22-1.52.08-3.16.19-4.34,1.15-1.06.86-1.57,2.26-2.62,3.12-1.36,1.12-3.3,1.11-5.06,1.05-9.07-.32-13.9-.48-22.97-.47Z"/>
        <g>
          <rect class="cls-28" x="729.63" y="237.07" width="28.01" height="6.92" transform="translate(455.63 967.09) rotate(-86.3)"/>
          <path class="cls-24" d="M739.67,189.47s-3.67,4.8-3.7,4.84c-3.17,4.15-5.38,8.89-8.69,12.97-3.79,4.67-8.45,8.65-13.7,11.6,3.59.43,7.31-.24,10.52-1.9-4.46,5.39-10.24,9.69-16.69,12.41,3.61,1.12,7.63.87,11.08-.68-2.72,2.9-5.7,5.56-8.89,7.94.42-.31,3.96.51,4.7.51,1.58,0,3.16-.17,4.7-.5,2.54-.54,6.06-1.47,7.83-3.51-1.14,3.25-2.56,6.4-4.24,9.41,3.91-2.01,7.53-4.6,10.69-7.66.43,3.09,1.29,6.12,2.53,8.98,1.16-3.2,2.02-6.62,2.96-9.91.89,3.33,2.37,6.49,4.35,9.31.27-1.17.54-2.33.81-3.5,1.64,2.07,3.44,4,5.39,5.78.15-3.54.13-7.09-.06-10.64,2.9,4.39,6.52,8.97,11.7,9.95-.42-2.69-1-5.35-1.74-7.97,3.75,2.93,8.22,4.94,12.9,5.79-.95-3.38-2.26-6.65-3.91-9.75,5.78,3.68,12.61,5.68,19.46,5.7-2.51-2.83-5.19-5.51-8.02-8.02,3.49,1.61,7.3,2.54,11.15,2.71-3.63-2.97-7.25-5.94-10.88-8.91,4.06,1.4,8.36,2.11,12.65,2.09-1.07,0-3.8-2.24-4.85-2.78-1.75-.9-3.53-1.76-5.18-2.84-2.48-1.64-5.98-4.36-7.41-7.02,2.34.08,4.6.12,6.91-.41-5.11-1.99-9.01-6.17-12.5-10.4-5.98-7.23-11.3-15.01-15.89-23.19-2.14-3.82-3.46-6.95-4.28-11.23-.46-2.42-.92-4.85-1.38-7.28l-8.33,28.1Z"/>
          <path class="cls-6" d="M741.24,166.5c-.25.65-.5,1.3-.75,1.95-2.79,7.12-6.93,13.71-12.14,19.31,1.84-.11,3.64-.92,4.93-2.23-3.4,5.82-7.63,11.15-12.53,15.78,2.78.09,5.58-.85,7.73-2.62-2.91,3.99-6.72,7.31-11.08,9.64,3.34.43,6.81-.21,9.79-1.78-2.78,2.6-5.79,4.96-8.98,7.03,2.35.88,4.99.44,7.38-.33,4.68-1.51,8.88-4.2,12.93-6.99.9,3.38,1.8,6.77,2.7,10.15,1.87-3.23,3.56-6.56,5.09-9.96,1.38,3.7,4.36,6.77,8.02,8.26-.15-2.88-.31-5.77-.46-8.65,2.48,3.78,6.34,6.64,10.67,7.92-.67-2.88-1.43-5.75-2.26-8.59.43,1.49,3.57,3.37,4.8,4.18,1.84,1.22,3.7,1.61,5.71,2.42-1.36-1.34-2.6-2.8-3.71-4.35,2.56,1.5,5.63,2.1,8.57,1.69-2.39-1.62-4.51-3.64-6.25-5.95,2.07-.02,4.13-.81,5.69-2.18-4.87-1.42-8.45-5.47-11.75-9.33,2.58.34,5.25-.02,7.64-1.04-5.64-2.79-10.08-8.82-12.84-14.33.89.21,1.78.43,2.67.64-2.45-2.45-4.56-5.24-6.25-8.26-2.49-4.46-3.45-9.58-4.77-14.49-.93-3.43-1.86-6.86-2.79-10.29-2.51,7.5-4.95,15.04-7.76,22.4Z"/>
          <path class="cls-19" d="M764.42,214.12c-1.89-.39-4.01-1.77-5.56-2.89-.95-.68-5.07-3.62-4.94-4.93-.21,2.11-.41,4.22-.62,6.33-3.23-2.08-5.62-5.42-6.54-9.15-1.46,2.65-2.92,5.31-4.39,7.96-1.96-4.05-1-9.16-.35-13.46.71-4.66,1.94-9.22,3.65-13.61-.46,1.19,1.19,2.31,2.39,1.88,1.2-.43,1.86-1.69,2.34-2.87.88-2.16,1.38-4.37,1.88-6.64.16-.72,1.48-4.35.86-4.83.87.67,1.86,1.19,2.91,1.52-1.4-1.59-2.44-3.5-3.02-5.54-.24.54-.48,1.08-.72,1.62-.48-1.48-.81-3-.97-4.55-.82,3.56-2.41,6.93-4.62,9.84.12-2.59.24-5.17.36-7.76.02-.37.02-.79-.25-1.05-.27-.26-.86-.06-.77.3,1.94-7.76,3.24-14.18,2.95-22.19-5.64,18.67-11.53,30.68-11.44,30.67-2.5,4.71-5.59,9.09-9.22,12.99,1.84-.11,3.64-.92,4.93-2.23-3.4,5.82-7.63,11.15-12.53,15.78,2.78.09,5.58-.85,7.73-2.62-2.91,3.99-6.72,7.31-11.08,9.64,3.34.43,6.81-.21,9.79-1.78-2.78,2.6-5.79,4.96-8.98,7.03.77.29,1.56.42,2.37.46-2.18,1.81-4.52,3.44-7,4.83,3.59.43,7.31-.24,10.52-1.9-4.46,5.39-10.24,9.69-16.69,12.41,3.61,1.12,7.63.87,11.08-.68-2.72,2.9-5.7,5.56-8.89,7.94.42-.31,3.96.51,4.7.51,1.58,0,3.16-.17,4.7-.5,2.54-.54,6.06-1.47,7.83-3.51-1.14,3.25-2.56,6.4-4.24,9.41,3.91-2.01,7.53-4.6,10.69-7.66.43,3.09,1.29,6.12,2.53,8.98,1.16-3.2,2.02-6.62,2.96-9.91.89,3.33,2.37,6.49,4.35,9.31-.26-.37.68-2.94.83-3.4,1.71,1.77,2.84,3.9,5.2,4.9-1.09-.47-2.03-4.98-2.32-6.07-.62-2.32-.96-4.71-1.03-7.12-.12-4.33.45-9.3,2.39-13.22,2.1,2.91,5.01,5.23,8.32,6.63.34.14.74.28,1.07.11.39-.2.47-.71.51-1.14.28-3.38.28-6.78,0-10.16,2.55,1.87,5.63,3.01,8.79,3.24-.79-.06-3.54-8.95-3.97-10.04.11.54,1.3,7.06,1.55,7.11-.02,0-.03,0-.05-.01Z"/>
        </g>
        <g>
          <rect class="cls-28" x="592.64" y="236.31" width="31" height="7.67" transform="translate(367.3 848.01) rotate(-89.93)"/>
          <path class="cls-3" d="M616.24,184.03l3.74,5.61s4.67,7.89,4.72,7.97c2.85,4.82,4.88,9.31,8.81,13.47,4.6,4.86,9.48,9.46,14.61,13.75-6.75-.83-13.25-3.53-18.6-7.72,4.58,6.51,11.17,11.6,18.64,14.37-6.45,1.11-12.91-1.42-18.96-3.9,3.83,4.44,8.49,8.16,13.68,10.89-7.94.42-15.39-3.52-22.37-7.34,1.5,3.12,3.01,6.24,4.51,9.36-3.8-1.8-7.21-4.44-9.92-7.66-1.1,3.28-2.39,6.49-3.86,9.62-.8-3.68-1.6-7.37-2.4-11.05-3.04,3.97-6.8,7.4-11.05,10.05.62-3.75,1.24-7.5,1.86-11.25-4.02,4.09-9.01,7.22-14.44,9.07.91-3.76,2.12-7.44,3.62-11.01-4.53,3.92-9.94,6.8-15.72,8.37,2.1-2.95,4.53-5.67,7.23-8.1-4.15,1.81-8.68,2.74-13.2,2.71,2.8-2.08,5.6-4.17,8.39-6.25-3.88.8-7.91.85-11.8.13,5.42-4.06,10.85-8.13,16.27-12.19-3.38,1.18-6.97,2.24-10.5,1.62,1.09.19,5.19-3.64,6.16-4.35,2.24-1.64,4.44-3.32,6.55-5.12,4.14-3.52,7.98-7.48,10.86-12.12,4.48-7.2,7.8-15.17,11.37-22.87l4.61-17.75,7.17,31.64Z"/>
          <path class="cls-22" d="M615.91,158.64c1.9,7.23,4.62,13.98,10.71,18.61-2.05.01-4.1-.33-6.04-1,2.29,4.57,5.53,8.89,9.79,11.75-1.61.21-5.74.33-6.94-1.14,1.83,2.24,3.85,4.29,6.25,5.91,1.18.79,2.42,1.48,3.72,2.07.89.4,2.87,1.55,3.85,1.39-2.87.47-5.9-.03-8.47-1.39,3.99,3.32,8.86,5.57,13.97,6.45-3.23,1.72-7.11,1.48-10.75,1.2,3.75,2.26,7.74,4.1,11.9,5.47-5.53,1.48-12.11,1.2-16.85-2.35,3.8,4.61,8.05,8.85,12.68,12.64-6.78-1.48-13.25-4.35-18.89-8.38-.38,2.76-.59,5.54-.62,8.33-1.11-1.62-2.23-3.24-3.34-4.86-.79,3.29-1.57,6.57-2.36,9.86-2.75-4.81-4.88-9.98-6.33-15.33-3.03,4.95-6.75,9.48-11.04,13.4-.08-4.35.56-8.71,1.87-12.85-3.28,3.85-8.15,6.3-13.2,6.66,2.62-2.26,5.15-4.64,7.57-7.12-3.6,1.79-7.59,2.78-11.61,2.86,1.74-1.4,3.37-2.94,4.86-4.6-4.8,1.58-10.13,1.49-14.87-.26,4.03-1.48,7.83-3.58,11.23-6.2-3.17,1.01-6.77.44-9.53-1.39,4.25-1.24,8.21-3.46,11.49-6.43-1.58.52-3.35.47-4.89-.15,4.1-.84,7.87-3.21,10.4-6.55-2.45.74-5.15.63-7.52-.33.83.33,4.02-2.44,4.66-2.97,1.61-1.34,3.03-2.91,4.19-4.64,2.25-3.35,4.9-6.45,6.47-10.25-1.27,1.46-2.7,2.77-4.26,3.93,2.91-4.95,5.33-10.02,7.51-15.31l7.71-22.44s6.68,25.39,6.68,25.4Z"/>
          <path class="cls-22" d="M591.14,188.84c2.62-1.31,4.95-3.2,6.76-5.51-1.91,2.92-3.81,5.83-5.72,8.75,4.02-.92,7.74-3.12,10.47-6.21-1.01,3.12-1.7,6.35-2.04,9.62,3.98-1.88,7.4-4.9,9.75-8.62.44,3.47,1.35,6.88,2.71,10.1,1.84-4.05,3.11-8.36,3.73-12.76,1.52,1.87,3.31,3.52,5.31,4.86.13-1.08.36-2.16.71-3.19,2.06,2.61,3.97,5.01,6.77,6.9,1.18.79,2.42,1.48,3.72,2.07.89.4,2.87,1.55,3.85,1.39-2.87.47-5.9-.03-8.47-1.39,3.99,3.32,8.86,5.57,13.97,6.45-3.23,1.72-7.11,1.48-10.75,1.2,3.75,2.26,7.74,4.1,11.9,5.47-5.53,1.48-12.11,1.2-16.85-2.35,3.8,4.61,8.05,8.85,12.68,12.64-6.78-1.48-13.25-4.35-18.89-8.38-.38,2.76-.59,5.54-.62,8.33-1.11-1.62-2.23-3.24-3.34-4.86-.79,3.29-1.57,6.57-2.36,9.86-2.75-4.81-4.88-9.98-6.33-15.33-3.03,4.95-6.75,9.48-11.04,13.4-.08-4.35.56-8.71,1.87-12.85-3.28,3.85-8.15,6.3-13.2,6.66,2.62-2.26,5.15-4.64,7.57-7.12-3.6,1.79-7.59,2.78-11.61,2.86,1.74-1.4,3.37-2.94,4.86-4.6-4.8,1.58-10.13,1.49-14.87-.26,4.03-1.48,7.83-3.58,11.23-6.2-3.17,1.01-6.77.44-9.53-1.39,4.25-1.24,8.21-3.46,11.49-6.43-1.58.52-3.35.47-4.89-.15,1.44.57,5.26-1.95,6.38-2.73,2.71-1.86,4.94-4.64,6.62-7.43-.26,1.47-.29,6.42-1.85,7.19Z"/>
          <path class="cls-19" d="M594.94,214.49c-5.21,3.02-11.47,4.18-17.41,3.21,2.15-1.46,4.16-3.12,5.99-4.97-3.17.56-6.37.97-9.58,1.23,2.8-1.2,5.31-3.06,7.27-5.38-1.57.24-3.14.49-4.7.73,1.05-.42,1.97-1.14,2.63-2.05,2.42.24,4.9-.09,7.18-.95-1.41,1.57-2.91,3.07-4.47,4.49,3.8-.25,7.57-1.07,11.13-2.42-2.04,2.52-4.38,4.79-6.95,6.77,5.07.13,9.38-3.45,13.15-6.83-1.19,3.66-1.78,7.51-1.74,11.36,5.27-7.37,8.69-16.05,9.86-25.04-1.89,1.96-3.88,3.87-6.28,5.15-2.4,1.28-5.27,1.89-7.87,1.12,1.94-2.38,3.62-4.97,5-7.71-3.36,2.93-8.07,4.23-12.46,3.45,1.87-1.43,3.55-3.11,4.97-4.98-1.47.55-3.14.58-4.63.08,1.72-1.08,3.19-2.57,4.24-4.31-.68.16-1.37.31-2.05.47,1.75-1.67,3.25-3.6,4.43-5.71.18,2.16-.17,4.36-1,6.37,2.06-.96,3.92-2.34,5.44-4.03-1.27,2.54-2.7,5-4.3,7.35,3.92-1.01,7.5-3.26,10.12-6.35-.47,2.86-.94,5.72-1.42,8.59,5.11-4.64,10.68-14.46,7.89-21.49.28.19-.04.69-.38.65-.34-.04-.57-.36-.74-.65-1.82-3.03-2.8-6.57-2.8-10.1.4,1.57,1.28,3.02,2.49,4.1,1.02-1.56,1.58-3.41,1.61-5.27.69.5,1.38.99,2.07,1.48-.62-5.32-1.19-10.65-1.68-15.99-.25-2.67-.48-5.34-.7-8.01-.11-1.33-.27-2.67-.31-4.01-.03-.8.14-2.23.45-.89,1,4.33,5.7,21.89,7.48,28.22,1.87,5.91,4.6,11.3,9.72,15.18-2.05.01-4.1-.33-6.04-1,2.29,4.57,5.53,8.89,9.79,11.75-1.42.19-4.8.3-6.41-.68.84,1.04,1.7,2.04,2.63,2.97.96.91,1.98,1.75,3.08,2.49,1.18.79,2.42,1.48,3.72,2.07.78.35,2.39,1.27,3.44,1.39.12,0,.23.01.33,0,.03,0,.06,0,.09,0-.73.12-1.47.17-2.21.17-2.12,0-4.24-.5-6.13-1.46,3.96,3.26,8.78,5.47,13.84,6.34-2.04,1.08-4.33,1.39-6.67,1.4-1.36,0-2.73-.09-4.08-.19,3.74,2.26,7.74,4.09,11.89,5.46-2.08.56-4.31.86-6.54.84-2.28-.01-4.56-.38-6.67-1.17.84,1.18,1.76,2.33,2.83,3.46,4.6,4.86,9.48,9.46,14.61,13.75-6.75-.83-13.25-3.53-18.6-7.72,4.58,6.51,11.17,11.6,18.64,14.37-6.45,1.11-12.91-1.42-18.96-3.9,3.83,4.44,8.49,8.16,13.68,10.89-7.94.42-15.39-3.52-22.37-7.34,1.5,3.12,3.01,6.24,4.51,9.36-3.8-1.8-7.21-4.44-9.92-7.66-1.1,3.28-2.39,6.49-3.86,9.62-.8-3.68-1.6-7.37-2.4-11.05-3.04,3.97-6.8,7.4-11.05,10.05.62-3.75,1.24-7.5,1.86-11.25-2.04,2.07-4.33,3.9-6.8,5.44-1.27.79-2.59,1.52-3.95,2.14-.88.41-1.89.66-2.81.96.58-.19,2.23-4.4,2.62-5.19,1.01-2.05,1.92-4.15,2.72-6.29,1.58-4.19,2.76-8.52,3.51-12.94Z"/>
        </g>
        <path class="cls-10" d="M501.69,390.23l322.09-.6.24-88.3s-240.78-23.07-322.33,88.9Z"/>
        <path class="cls-16" d="M248.45,317.87l-322.09-.6-.24-88.3s240.78-23.07,322.33,88.9Z"/>
        <path class="cls-31" d="M885.48,472.76c-121.48-31.63-305.06-59.16-510.48-59.16s-389.01,27.53-510.48,59.16v151.38h1020.97v-151.38Z"/>
        <g>
          <rect class="cls-28" x="610.43" y="322.64" width="49.93" height="12.34" transform="translate(289.68 955.17) rotate(-88.47)"/>
          <path class="cls-24" d="M650.74,238.8s5.73,9.12,5.78,9.19c4.95,7.88,8.1,16.65,13.32,24.45,5.97,8.92,13.6,16.73,22.44,22.83-6.45.19-12.94-1.61-18.37-5.09,7.05,10.3,16.6,18.86,27.61,24.76-6.6,1.4-13.69.31-19.56-3.01,4.36,5.59,9.22,10.8,14.49,15.55-.69-.62-7.12.27-8.42.15-2.8-.26-5.58-.81-8.27-1.65-4.41-1.37-10.53-3.6-13.34-7.5,1.5,5.95,3.51,11.78,5.99,17.39-6.62-4.2-12.62-9.39-17.73-15.34-1.27,5.41-3.28,10.65-5.95,15.53-1.55-5.88-2.51-12.09-3.64-18.08-2.12,5.76-5.27,11.14-9.24,15.82-.29-2.12-.58-4.23-.87-6.35-3.24,3.4-6.76,6.55-10.51,9.39.31-6.32.92-12.62,1.84-18.87-5.87,7.33-13.04,14.87-22.39,15.77,1.18-4.7,2.65-9.34,4.38-13.86-7.13,4.6-15.4,7.43-23.85,8.17,2.24-5.84,5.1-11.45,8.53-16.68-10.86,5.59-23.31,8.03-35.47,6.96,4.92-4.61,10.11-8.93,15.54-12.93-6.47,2.3-13.38,3.32-20.24,2.99,6.92-4.68,13.84-9.37,20.77-14.05-7.44,1.83-15.18,2.39-22.8,1.65,1.91.19,7.11-3.36,9.07-4.15,3.25-1.32,6.56-2.54,9.65-4.2,4.68-2.51,11.33-6.78,14.29-11.27-4.17-.24-8.18-.53-12.2-1.84,9.39-2.71,17.01-9.5,23.89-16.43,11.79-11.87,22.51-24.81,31.99-38.6,4.42-6.43,7.28-11.78,9.42-19.24,1.21-4.23,2.43-8.46,3.64-12.69l10.21,51.24Z"/>
          <path class="cls-6" d="M651.7,197.77c.34,1.2.68,2.39,1.02,3.58,3.8,13.1,10.08,25.47,18.42,36.26-3.26-.49-6.31-2.22-8.4-4.77,5.1,10.88,11.74,21.03,19.67,30.06-4.95-.28-9.77-2.42-13.3-5.9,4.51,7.55,10.75,14.07,18.1,18.91-6,.21-12.06-1.47-17.09-4.76,4.51,5.07,9.47,9.74,14.81,13.94-4.31,1.19-8.93-.03-13.04-1.79-8.06-3.44-15.08-8.9-21.81-14.52-2.15,5.86-4.3,11.72-6.45,17.58-2.79-6.04-5.26-12.22-7.42-18.52-3.05,6.35-8.85,11.32-15.59,13.36.74-5.1,1.49-10.19,2.23-15.29-5.02,6.31-12.33,10.76-20.24,12.33,1.67-5.01,3.47-9.98,5.4-14.89-1.02,2.58-6.89,5.4-9.21,6.65-3.46,1.86-6.82,2.26-10.54,3.37,2.63-2.16,5.07-4.55,7.3-7.12-4.79,2.24-10.34,2.81-15.48,1.6,4.51-2.48,8.61-5.73,12.06-9.55-3.68-.37-7.21-2.1-9.75-4.79,8.88-1.73,15.9-8.33,22.38-14.65-4.63.19-9.31-.89-13.39-3.09,10.46-4.04,19.32-14.02,25.13-23.36-1.61.23-3.23.47-4.84.7,4.75-3.95,8.95-8.56,12.44-13.65,5.15-7.51,7.68-16.45,10.83-24.94,2.21-5.94,4.42-11.88,6.63-17.82,3.23,13.73,6.35,27.51,10.13,41.04Z"/>
          <path class="cls-19" d="M602.79,278.54c3.42-.39,7.41-2.49,10.35-4.22,1.8-1.06,9.59-5.6,9.58-7.96.02,3.78.05,7.56.07,11.34,6.07-3.16,10.86-8.71,13.09-15.18,2.17,4.95,4.33,9.9,6.49,14.84,4.13-6.88,3.27-16.1,2.81-23.85-.5-8.38-1.94-16.69-4.26-24.76.63,2.18-2.48,3.9-4.54,2.94-2.06-.96-3.03-3.3-3.68-5.47-1.2-3.99-1.74-7.98-2.26-12.09-.16-1.3-1.92-7.96-.74-8.71-1.66,1.05-3.5,1.81-5.42,2.22,2.74-2.6,4.89-5.81,6.26-9.34.34,1,.68,2,1.02,2.99,1.09-2.54,1.92-5.2,2.46-7.92.88,6.45,3.15,12.7,6.6,18.22.21-4.61.42-9.23.62-13.84.03-.66.1-1.41.62-1.82.52-.41,1.55.04,1.32.66-2.18-14.1-3.45-25.71-1.63-39.88,6.97,34.07,15.49,56.35,15.32,56.32,3.67,8.76,8.45,17.05,14.26,24.57-3.26-.49-6.31-2.22-8.4-4.77,5.1,10.88,11.74,21.03,19.67,30.06-4.95-.28-9.77-2.42-13.3-5.9,4.51,7.55,10.75,14.07,18.1,18.91-6,.21-12.06-1.47-17.09-4.76,4.51,5.07,9.47,9.74,14.81,13.94-1.41.39-2.85.5-4.29.44,3.58,3.57,7.47,6.84,11.64,9.72-6.45.19-12.94-1.61-18.37-5.09,7.05,10.3,16.6,18.86,27.61,24.76-6.6,1.4-13.69.31-19.56-3.01,4.36,5.59,9.22,10.8,14.49,15.55-.69-.62-7.12.27-8.42.15-2.8-.26-5.58-.81-8.27-1.65-4.41-1.37-10.53-3.6-13.34-7.5,1.5,5.95,3.51,11.78,5.99,17.39-6.62-4.2-12.62-9.39-17.73-15.34-1.27,5.41-3.28,10.65-5.95,15.53-1.55-5.88-2.51-12.09-3.64-18.08-2.12,5.76-5.27,11.14-9.24,15.82.52-.61-.73-5.33-.92-6.17-3.32,2.86-5.68,6.45-10.02,7.86,2.01-.65,4.42-8.51,5.11-10.4,1.47-4.02,2.47-8.21,2.98-12.47.91-7.68.71-16.58-2.08-23.86-4.2,4.83-9.75,8.48-15.86,10.42-.63.2-1.36.37-1.92.01-.66-.42-.73-1.34-.72-2.11.05-6.05.61-12.09,1.66-18.04-4.83,2.9-10.49,4.42-16.13,4.33,1.42.02,7.73-15.32,8.68-17.18-.28.95-3.46,12.33-3.91,12.38.03,0,.06,0,.09-.01Z"/>
        </g>
        <g>
          <rect class="cls-28" x="684.7" y="417.07" width="26.73" height="108.01" transform="translate(-.54 .8) rotate(-.07)"/>
          <path class="cls-3" d="M669.84,275.59l-13.03,19.56s-16.25,27.47-16.44,27.78c-9.93,16.78-16.99,32.43-30.71,46.94-16.01,16.94-33.01,32.95-50.89,47.91,23.5-2.88,46.16-12.29,64.8-26.89-15.96,22.69-38.92,40.4-64.92,50.07,22.47,3.87,44.97-4.94,66.06-13.58-13.34,15.47-29.59,28.41-47.65,37.95,27.67,1.46,53.61-12.25,77.92-25.56-5.24,10.87-10.47,21.75-15.71,32.62,13.25-6.28,25.13-15.46,34.56-26.69,3.82,11.42,8.31,22.62,13.44,33.52,2.79-12.83,5.57-25.66,8.36-38.5,10.6,13.84,23.7,25.76,38.48,35.01-2.16-13.06-4.32-26.12-6.48-39.18,14.01,14.24,31.39,25.15,50.31,31.59-3.16-13.1-7.39-25.93-12.63-38.35,15.77,13.64,34.63,23.69,54.75,29.17-7.33-10.29-15.79-19.76-25.19-28.21,14.45,6.31,30.23,9.55,45.99,9.44-9.75-7.26-19.49-14.52-29.24-21.78,13.5,2.79,27.55,2.95,41.11.46-18.9-14.16-37.8-28.31-56.69-42.47,11.78,4.12,24.28,7.79,36.57,5.66-3.81.66-18.06-12.67-21.46-15.15-7.8-5.7-15.47-11.58-22.83-17.84-14.42-12.27-27.8-26.06-37.84-42.21-15.59-25.08-27.17-52.84-39.61-79.66l-16.07-61.84-24.97,110.23Z"/>
          <path class="cls-22" d="M671.01,187.13c-6.63,25.2-16.09,48.71-37.32,64.84,7.14.04,14.28-1.14,21.03-3.47-7.98,15.93-19.28,30.97-34.12,40.93,5.6.73,19.99,1.16,24.18-3.96-6.39,7.81-13.4,14.96-21.76,20.59-4.11,2.76-8.45,5.17-12.96,7.2-3.11,1.4-10,5.41-13.43,4.85,10.01,1.63,20.55-.09,29.52-4.83-13.89,11.56-30.85,19.39-48.66,22.45,11.25,5.99,24.75,5.17,37.46,4.19-13.05,7.87-26.98,14.27-41.45,19.05,19.27,5.14,42.18,4.18,58.7-8.18-13.24,16.07-28.06,30.84-44.17,44.04,23.61-5.15,46.14-15.14,65.81-29.18,1.33,9.61,2.05,19.31,2.15,29.01,3.88-5.64,7.77-11.28,11.65-16.92,2.74,11.45,5.48,22.9,8.22,34.35,9.57-16.77,16.99-34.75,22.03-53.39,10.55,17.26,23.53,33.02,38.44,46.68.27-15.14-1.94-30.33-6.52-44.77,11.44,13.41,28.4,21.96,45.99,23.19-9.14-7.89-17.94-16.17-26.37-24.81,12.53,6.24,26.45,9.67,40.45,9.95-6.07-4.86-11.74-10.23-16.93-16.02,16.72,5.52,35.3,5.19,51.81-.92-14.04-5.14-27.29-12.46-39.12-21.6,11.03,3.52,23.57,1.55,33.18-4.84-14.81-4.32-28.61-12.04-40.04-22.39,5.51,1.82,11.65,1.63,17.05-.51-14.29-2.92-27.42-11.2-36.22-22.83,8.53,2.59,17.93,2.18,26.2-1.14-2.9,1.16-14.01-8.49-16.22-10.34-5.6-4.66-10.54-10.12-14.6-16.17-7.85-11.68-17.09-22.46-22.54-35.71,4.44,5.07,9.42,9.66,14.82,13.68-10.12-17.25-18.56-34.91-26.18-53.34l-26.85-78.18s-23.26,88.46-23.26,88.47Z"/>
          <path class="cls-22" d="M757.28,292.34c-9.14-4.55-17.25-11.15-23.56-19.19,6.64,10.16,13.28,20.32,19.93,30.48-14.01-3.19-26.95-10.87-36.48-21.62,3.53,10.88,5.92,22.13,7.11,33.51-13.85-6.54-25.78-17.08-33.98-30.02-1.52,12.08-4.7,23.95-9.43,35.17-6.43-14.09-10.82-29.11-13-44.44-5.28,6.52-11.54,12.25-18.5,16.93-.44-3.78-1.27-7.51-2.48-11.12-7.17,9.09-13.84,17.46-23.6,24.02-4.11,2.76-8.45,5.17-12.96,7.2-3.1,1.4-10,5.41-13.43,4.85,10.01,1.63,20.54-.09,29.52-4.83-13.89,11.56-30.85,19.39-48.66,22.45,11.25,5.99,24.75,5.17,37.46,4.19-13.05,7.87-26.98,14.27-41.45,19.05,19.27,5.14,42.18,4.18,58.7-8.18-13.24,16.07-28.06,30.84-44.17,44.04,23.61-5.15,46.14-15.14,65.81-29.18,1.33,9.61,2.05,19.31,2.15,29.01,3.88-5.64,7.77-11.28,11.65-16.92,2.74,11.45,5.48,22.9,8.22,34.35,9.57-16.77,16.99-34.75,22.03-53.39,10.55,17.26,23.53,33.02,38.44,46.68.27-15.14-1.94-30.33-6.52-44.77,11.44,13.41,28.4,21.96,45.99,23.19-9.14-7.89-17.94-16.17-26.37-24.81,12.53,6.24,26.45,9.67,40.45,9.95-6.07-4.86-11.74-10.23-16.93-16.02,16.72,5.52,35.3,5.19,51.81-.92-14.04-5.14-27.29-12.46-39.12-21.6,11.03,3.52,23.57,1.55,33.18-4.84-14.8-4.32-28.61-12.04-40.04-22.39,5.51,1.82,11.65,1.63,17.05-.51-5.01,1.99-18.31-6.81-22.23-9.5-9.45-6.5-17.22-16.15-23.06-25.88.91,5.11,1.02,22.36,6.43,25.05Z"/>
          <path class="cls-19" d="M744.03,381.72c18.13,10.54,39.96,14.55,60.66,11.17-7.5-5.07-14.51-10.88-20.88-17.32,11.05,1.95,22.2,3.38,33.39,4.29-9.74-4.18-18.49-10.66-25.33-18.76,5.46.85,10.92,1.7,16.38,2.55-3.64-1.45-6.86-3.96-9.15-7.14-8.44.83-17.07-.31-25.01-3.31,4.93,5.46,10.13,10.68,15.57,15.63-13.25-.87-26.37-3.72-38.78-8.41,7.12,8.77,15.26,16.7,24.21,23.59-17.65.47-32.66-12.02-45.82-23.78,4.16,12.75,6.21,26.18,6.04,39.58-18.37-25.66-30.28-55.91-34.34-87.21,6.57,6.83,13.53,13.47,21.89,17.93,8.35,4.46,18.34,6.57,27.43,3.89-6.74-8.29-12.59-17.31-17.42-26.85,11.72,10.19,28.13,14.74,43.42,12.03-6.52-4.97-12.37-10.83-17.32-17.36,5.13,1.92,10.92,2.03,16.12.29-6-3.77-11.1-8.95-14.77-15.01,2.38.54,4.76,1.08,7.14,1.63-6.09-5.82-11.31-12.54-15.43-19.88-.63,7.53.58,15.2,3.48,22.18-7.18-3.34-13.67-8.15-18.95-14.04,4.41,8.86,9.42,17.42,14.98,25.61-13.64-3.53-26.14-11.37-35.26-22.12,1.65,9.97,3.29,19.94,4.94,29.91-17.79-16.18-37.19-50.36-27.5-74.85-.98.68.13,2.39,1.31,2.26,1.18-.13,1.97-1.24,2.59-2.26,6.33-10.57,9.74-22.87,9.74-35.2-1.39,5.48-4.46,10.52-8.68,14.28-3.55-5.43-5.52-11.88-5.62-18.37-2.4,1.72-4.8,3.45-7.2,5.17,2.18-18.54,4.13-37.11,5.86-55.7.87-9.29,1.68-18.59,2.43-27.9.38-4.64.94-9.31,1.09-13.96.09-2.78-.49-7.78-1.57-3.08-3.47,15.1-19.87,76.25-26.07,98.31-6.52,20.59-16.04,39.35-33.87,52.9,7.14.04,14.28-1.14,21.03-3.47-7.98,15.93-19.28,30.97-34.12,40.93,4.95.65,16.74,1.05,22.31-2.39-2.94,3.63-5.91,7.1-9.16,10.33-3.35,3.15-6.89,6.1-10.74,8.69-4.11,2.76-8.45,5.17-12.96,7.2-2.71,1.22-8.33,4.44-11.98,4.86-.41.03-.81.05-1.14,0-.1,0-.22.01-.31,0,2.55.42,5.13.61,7.72.59,7.38,0,14.76-1.74,21.35-5.07-13.8,11.36-30.59,19.07-48.21,22.1,7.1,3.78,15.1,4.84,23.22,4.87,4.74.03,9.52-.3,14.2-.65-13.03,7.86-26.95,14.25-41.4,19.03,7.26,1.94,15.03,3,22.78,2.93,7.95-.05,15.88-1.31,23.22-4.08-2.93,4.09-6.14,8.11-9.85,12.04-16.01,16.94-33.01,32.95-50.89,47.91,23.5-2.88,46.16-12.29,64.8-26.89-15.96,22.69-38.92,40.4-64.92,50.07,22.47,3.87,44.97-4.94,66.06-13.58-13.34,15.47-29.59,28.41-47.65,37.95,27.67,1.45,53.61-12.25,77.92-25.56-5.24,10.87-10.47,21.75-15.71,32.62,13.25-6.28,25.13-15.46,34.56-26.69,3.82,11.42,8.31,22.62,13.44,33.52,2.79-12.83,5.57-25.66,8.36-38.5,10.6,13.84,23.7,25.76,38.48,35.01-2.16-13.06-4.32-26.12-6.48-39.18,7.11,7.23,15.09,13.6,23.69,18.96,4.43,2.76,9.02,5.28,13.76,7.46,3.07,1.41,6.57,2.31,9.78,3.36-2.02-.66-7.77-15.33-9.13-18.09-3.51-7.14-6.68-14.46-9.48-21.91-5.49-14.59-9.6-29.7-12.23-45.06Z"/>
        </g>
        <g>
          <rect class="cls-28" x="93.04" y="244.08" width="10.85" height="43.9" transform="translate(-7.09 2.73) rotate(-1.53)"/>
          <path class="cls-24" d="M84.98,186.89s-5.04,8.02-5.08,8.08c-4.36,6.93-7.12,14.64-11.71,21.5-5.25,7.84-11.96,14.71-19.73,20.07,5.67.17,11.38-1.42,16.15-4.48-6.2,9.05-14.6,16.59-24.27,21.76,5.8,1.23,12.04.27,17.2-2.65-3.83,4.92-8.1,9.5-12.74,13.67.61-.55,6.26.23,7.41.13,2.46-.22,4.91-.71,7.27-1.45,3.88-1.2,9.25-3.16,11.73-6.59-1.32,5.23-3.09,10.35-5.27,15.29,5.82-3.7,11.09-8.26,15.58-13.49,1.12,4.76,2.88,9.37,5.23,13.65,1.36-5.17,2.21-10.63,3.2-15.89,1.87,5.06,4.63,9.8,8.12,13.91.25-1.86.51-3.72.76-5.58,2.85,2.99,5.95,5.76,9.24,8.25-.27-5.55-.81-11.09-1.62-16.59,5.16,6.44,11.47,13.07,19.68,13.86-1.04-4.13-2.33-8.21-3.85-12.19,6.27,4.05,13.54,6.54,20.97,7.19-1.97-5.14-4.49-10.06-7.5-14.67,9.55,4.91,20.49,7.06,31.19,6.12-4.32-4.06-8.89-7.85-13.67-11.37,5.68,2.02,11.77,2.92,17.79,2.63-6.09-4.12-12.17-8.24-18.26-12.35,6.54,1.61,13.35,2.1,20.05,1.45-1.68.16-6.25-2.95-7.98-3.65-2.86-1.16-5.76-2.24-8.49-3.7-4.11-2.21-9.96-5.96-12.57-9.9,3.67-.21,7.19-.47,10.73-1.62-8.26-2.38-14.95-8.35-21.01-14.45-10.37-10.44-19.79-21.81-28.12-33.93-3.89-5.66-6.4-10.36-8.28-16.91-1.07-3.72-2.13-7.44-3.2-11.16l-8.98,45.05Z"/>
          <path class="cls-6" d="M84.14,150.82c-.29,1.05-.59,2.1-.9,3.15-3.34,11.51-8.86,22.4-16.19,31.88,2.86-.43,5.55-1.95,7.38-4.19-4.48,9.57-10.32,18.49-17.3,26.43,4.35-.25,8.59-2.13,11.69-5.19-3.97,6.64-9.45,12.37-15.91,16.62,5.28.19,10.6-1.3,15.02-4.18-3.97,4.46-8.33,8.57-13.02,12.26,3.79,1.04,7.85-.03,11.47-1.57,7.09-3.03,13.26-7.83,19.18-12.76,1.89,5.15,3.78,10.3,5.67,15.46,2.45-5.31,4.63-10.75,6.52-16.28,2.68,5.58,7.78,9.95,13.71,11.75-.65-4.48-1.31-8.96-1.96-13.44,4.42,5.55,10.84,9.46,17.8,10.84-1.47-4.41-3.05-8.77-4.75-13.09.89,2.27,6.06,4.75,8.1,5.85,3.04,1.64,6,1.98,9.27,2.96-2.31-1.9-4.46-4-6.42-6.26,4.21,1.97,9.09,2.47,13.61,1.41-3.97-2.18-7.57-5.03-10.6-8.4,3.24-.32,6.34-1.85,8.57-4.21-7.81-1.52-13.98-7.32-19.68-12.88,4.07.17,8.19-.78,11.78-2.72-9.2-3.55-16.99-12.33-22.1-20.54,1.42.21,2.84.41,4.26.62-4.18-3.47-7.87-7.52-10.94-12-4.53-6.6-6.75-14.46-9.52-21.93-1.94-5.22-3.88-10.45-5.83-15.67-2.84,12.07-5.58,24.19-8.91,36.08Z"/>
          <path class="cls-19" d="M127.13,221.83c-3-.34-6.51-2.19-9.1-3.71-1.59-.93-8.43-4.93-8.42-7-.02,3.32-.04,6.65-.06,9.97-5.34-2.78-9.55-7.66-11.51-13.34-1.9,4.35-3.81,8.7-5.71,13.05-3.63-6.04-2.88-14.16-2.47-20.97.44-7.37,1.71-14.67,3.74-21.77-.55,1.92,2.18,3.43,3.99,2.59,1.81-.84,2.66-2.9,3.24-4.81,1.06-3.5,1.53-7.02,1.98-10.63.14-1.14,1.68-7,.65-7.66,1.46.93,3.08,1.59,4.76,1.95-2.41-2.29-4.3-5.11-5.5-8.21-.3.88-.6,1.75-.89,2.63-.96-2.24-1.69-4.57-2.16-6.96-.78,5.67-2.77,11.16-5.8,16.02-.18-4.06-.37-8.11-.55-12.17-.03-.58-.09-1.24-.55-1.6-.46-.36-1.36.03-1.16.58,1.92-12.4,3.03-22.61,1.43-35.06-6.13,29.95-13.62,49.54-13.47,49.51-3.22,7.7-7.43,14.99-12.53,21.6,2.86-.43,5.55-1.95,7.38-4.19-4.48,9.57-10.32,18.49-17.3,26.43,4.35-.25,8.59-2.13,11.69-5.19-3.97,6.64-9.45,12.37-15.91,16.62,5.28.19,10.6-1.3,15.02-4.18-3.97,4.46-8.33,8.57-13.02,12.26,1.24.34,2.5.44,3.77.38-3.15,3.14-6.57,6.02-10.23,8.55,5.67.17,11.38-1.42,16.15-4.48-6.2,9.05-14.6,16.59-24.27,21.76,5.8,1.23,12.04.27,17.2-2.65-3.83,4.92-8.1,9.5-12.74,13.67.61-.55,6.26.23,7.41.13,2.46-.22,4.91-.71,7.27-1.45,3.88-1.2,9.25-3.16,11.73-6.59-1.32,5.23-3.09,10.35-5.27,15.29,5.82-3.7,11.09-8.26,15.58-13.49,1.12,4.76,2.88,9.37,5.23,13.65,1.36-5.17,2.21-10.63,3.2-15.89,1.87,5.06,4.63,9.8,8.12,13.91-.46-.54.64-4.69.81-5.43,2.92,2.52,4.99,5.67,8.81,6.91-1.77-.57-3.88-7.48-4.49-9.15-1.29-3.54-2.17-7.22-2.62-10.96-.8-6.75-.62-14.58,1.83-20.98,3.7,4.25,8.58,7.45,13.94,9.16.56.18,1.2.33,1.69.01.58-.37.64-1.17.63-1.86-.04-5.32-.53-10.63-1.46-15.86,4.25,2.55,9.22,3.89,14.18,3.8-1.25.02-6.8-13.47-7.63-15.11.25.83,3.04,10.84,3.44,10.88-.03,0-.05,0-.08,0Z"/>
        </g>
        <g>
          <path class="cls-29" d="M216.3,329.16l9.55-17.27s11.79-11.82,27.43-.21c15.65,11.6,16.59,17.07,16.59,17.07,0,0-13.18,7.92-53.58.42Z"/>
          <path class="cls-30" d="M216.32,329.27c1.33-2.41,2.66-4.82,4-7.23,1.72-3.11,3.24-6.52,5.24-9.47.88-1.31,2.79-1.81,4.28-2.31,2.15-.73,4.4-1.19,6.66-1.35,4.68-.35,9.58.62,13.36,3.4-.87.71-1.63,1.53-2.28,2.44-.19.27-.37.56-.39.89-.03.53.38.96.76,1.33,4.52,4.32,9.81,7.96,13.34,13.12,1.22,1.78-2.87,1.77-3.89,1.89-1.92.22-3.85.35-5.78.43-5.16.22-10.34.02-15.48-.41-6.65-.56-13.26-1.52-19.82-2.74Z"/>
          <path class="cls-29" d="M278.02,328.42l6.07-8.65s7.47-5.92,17.37-.14c9.89,5.79,10.49,8.52,10.49,8.52,0,0-8.35,3.97-33.92.26Z"/>
          <path class="cls-30" d="M278.02,328.4s6.06-8.64,6.07-8.65c.26-.37.98-.65,1.36-.86,1.21-.65,2.52-1.14,3.86-1.44,1.94-.44,3.98-.53,5.91-.02.73.19,5.27,1.96,4.27,3.13-.19.22-.49.3-.77.4-.85.29-1.6.8-2.34,1.31-1.45.99-2.89,1.98-4.34,2.97-.04.03,1.29.92,1.43.99.6.28,1.22.4,1.85.54,1.44.31,2.91.55,4.38.78,3.07.5,6.14.96,9.23,1.38-.59.52-2.35.49-3.16.59-1.14.14-2.29.24-3.44.31-3.19.2-6.39.18-9.58.03-2.27-.11-4.55-.28-6.81-.5-1.29-.13-2.58-.27-3.87-.43-.45-.05-3.86-.78-4.03-.54Z"/>
        </g>
        <g>
          <path class="cls-29" d="M282.18,441.84c1.39-13.75-6.65-20.81-17.49-27.33-5.29-3.18-6.22-6.08-8.62-11.7-1.44-3.38-3.89-6.31-6.96-8.33-1.83-1.2-3.91-2.11-5.39-3.73-2.35-2.57-2.8-6.49-5.26-8.95-2.44-2.44-6.23-2.84-9.67-2.67-15.8.78-28.07,10.19-35.69,23.63-5.21,9.18-6.86,19.96-12.86,28.89-.05-2.26-2.81-3.69-5-3.14-2.19.56-3.78,2.44-4.96,4.37-1.96,3.23-3.19,6.89-3.59,10.64-.07.64-.09,1.34.29,1.86.36.49.99.68,1.58.85,5.14,1.42,10.34,2.2,15.49,3.54,5.24,1.65,10.58,3.03,16.01,3.93,11.29,1.86,22.77,1.56,33.93-.97,3.02-.68,6.17-1.6,8.34-3.81-.17.18-2.56-3.27-2.76-3.68-.83-1.74,39.55-2.12,42.51-2.55.04-.29.07-.57.1-.85Z"/>
          <path class="cls-30" d="M270.95,433.41c1.83-3.58,1.22-8.05-.73-11.56-1.95-3.51-5.08-6.22-8.34-8.57-3.26-2.35-6.73-4.44-9.73-7.11-.44-.39-.88-.81-1.06-1.37-.27-.83.12-1.72.2-2.59.22-2.31-1.7-4.28-3.72-5.42s-4.33-1.86-5.99-3.49c-2.03-2-2.72-5.02-4.58-7.17-3.02-3.51-8.33-3.89-12.9-3.2-10.27,1.56-19.62,7.22-26.88,14.65-4.52,4.63-6.72,10.58-8.92,16.56-1.17,3.17-2.27,6.36-3.6,9.46-.66,1.55-1.38,3.09-2.18,4.58-.42.77-2.17,2.79-2.15,3.59-.05-2.26-2.81-3.69-5-3.14-2.19.56-3.78,2.44-4.96,4.37-1.96,3.23-3.19,6.89-3.59,10.64-.07.64-.09,1.34.29,1.86.36.49.99.68,1.58.85,5.14,1.42,10.34,2.2,15.49,3.54,5.24,1.65,10.58,3.03,16.01,3.93,11.29,1.86,22.77,1.56,33.93-.97,2.56-.58,4.8-1.39,6.86-3.1.27-.22.55-.51.52-.85-.02-.24-.18-.44-.34-.62-1.65-1.92-3.3-3.84-4.95-5.76-.98-1.14-1.98-2.3-3.22-3.16,2.16-1.6,3.38-2.14,5.99-2.57,1.87-.31,3.81-.56,5.45-1.51,1.64-.96,2.9-2.86,2.45-4.71-.45-1.84-2.41-3.77-1.21-5.23.62-.76,1.75-.78,2.73-.7,8.16.65,16.1,3.74,22.55,8.78Z"/>
        </g>
        <g>
          <path class="cls-6" d="M260.66,449.57c.92-2.16,3.23-3.65,5.57-3.59-2.55-1.11-5.11-2.22-7.66-3.33-.31-2.74,2.39-5.08,5.13-5.41,2.74-.33,5.43.77,7.97,1.85-.71-2.15-.89-4.48-.53-6.72.12-.76.36-1.58.99-2.03,1.13-.78,2.64.1,3.7.98,3.57,2.94,5.68,2.64,9.44,5.11,1.24-4.82,3-6.22,4.15-11.17.3-1.27.66-2.63,1.66-3.48,2.14-1.81,5.71.16,6.46,2.87.75,2.7-.35,5.54-1.43,8.12,3.33,1.73,7.85-2.93,10.79-.59,1.39,1.11,1.42,3.33.55,4.88-.88,1.55-2.41,2.6-3.9,3.59,5.11-1.1,16.85,8.34,13.58,12.51-7.8,14.15-52.86-2.46-56.48-3.6Z"/>
          <path class="cls-19" d="M267.75,451.17c.68-1.6,2.38-2.7,4.12-2.65-1.89-.82-3.78-1.64-5.66-2.46-.23-2.03,1.77-3.75,3.8-4,2.03-.24,4.01.57,5.89,1.37-.53-1.59-.66-3.31-.39-4.96.09-.56.26-1.17.73-1.5.84-.58,1.95.08,2.74.72,2.64,2.17,4.2,1.95,6.98,3.78.92-3.56,2.22-4.6,3.06-8.26.22-.94.49-1.94,1.23-2.57,1.58-1.34,4.22.12,4.78,2.12.56,2-.26,4.09-1.06,6.01,2.46,1.28,5.81-2.17,7.98-.44,1.03.82,1.05,2.46.4,3.61-.65,1.15-1.78,1.92-2.88,2.65,3.78-.82,12.46,6.16,10.04,9.24-5.76,10.46-39.08-1.82-41.75-2.66Z"/>
          <path class="cls-31" d="M238.62,458.76c2.63-6.78,18.43-8.71,20.97-9.01,6.46-.76,13.94-1.19,18.45,3.5.67-2.62,1.48-5.46,3.65-7.08,2.17-1.62,6.09-.96,6.57,1.71,1.36-1.18,3.35-1.59,5.06-1.05.29,1.51.04,3.11-.69,4.46,2.26-.82,4.59-1.66,6.99-1.56,2.4.1,4.92,1.38,5.74,3.64,8.8-.62,17.65-.59,26.45.07,2.11.16,4.94,1.35,4.32,3.37-1.06,3.46-45.03,3.17-50.16,3.35-13.53.47-34.85,4.05-47.34-1.4Z"/>
        </g>
        <path class="cls-31" d="M375.61,396.89c-6.23.94-11.14,5.75-14.96,10.77-1.48,1.94-2.87,3.96-4.16,6.03.33-4.71-.58-9.52-2.68-13.76-.26-.52-.65-1.1-1.23-1.08-.27.01-.51.16-.72.32-2.4,1.82-2.53,5.32-2.44,8.33.05,1.56.12,3.15.33,4.71-1.84-2.94-3.92-5.68-6.48-8.02-1.36-1.25-3.35-2.42-4.95-1.49-1.41.82-1.6,2.81-1.21,4.39.98,3.94,4.33,6.81,7.65,9.16.21.15.44.27.65.42,3.31-.66,10.18-1.64,16,.04,6.4-4.02,12.23-8.94,17.21-14.63.83-.95,1.69-2.13,1.39-3.35-.41-1.71-2.67-2.11-4.41-1.85Z"/>
        <g>
          <path class="cls-13" d="M522.14,449.74c.36-2.35.47-4.74.5-7.12.05-4.92-.33-9.84-.99-14.72-.65-4.83-1.38-9.68-2.29-14.49.09-.41.19-.81.33-1.2.27-.78.57-1.55.89-2.31.62-1.49,1.3-2.96,1.85-4.48,1.04-2.88,1.43-5.96,1.47-9.01.02-1.69-.03-3.41-.29-5.08-.04-.28-.45-.37-.57-.08-1.33,3.35-2.57,6.68-3.26,10.22-.54,2.77-1.02,5.61-1.11,8.44-.64-3.05-1.36-6.07-2.2-9.06-1.4-4.96-3.19-9.77-5.62-14.32-.1-.18-.41-.08-.31.13,3.82,8.33,6.1,17.27,7.76,26.25.59,3.22,1.11,6.46,1.6,9.7-.22-.24-.46-.46-.72-.66-1.3-1.81-2.91-3.39-4.58-4.88-2.48-2.23-5.29-3.99-8.52-4.89-2.01-.57-4.08-.85-6.14-1.2-.26-.04-.42.32-.21.48,1.47,1.11,2.72,2.46,4.09,3.68,1.38,1.23,2.94,2.18,4.6,2.99,1.47.72,2.97,1.4,4.52,1.92,1.33.44,2.68.8,3.96,1.37,1.06.46,2,1.06,2.76,1.88.17.3.32.6.47.91.1.69.2,1.37.3,2.06.7,4.82,1.18,9.69,1.25,14.57.04,2.71-.05,5.43-.32,8.13-.19,1.92-.55,3.88-.65,5.83l.71.1c.19-1.73.46-3.44.73-5.16Z"/>
          <g>
            <path class="cls-17" d="M497.54,383.1c-.91.32-2.22.67-2.85,1.47-.55.69-.19,1.62.56,1.98.8.38,1.83.32,2.68.24,2.43-.22,4.63-1.24,6.82-2.24-.28.31-.55.62-.82.94-1.74,2.06-3.13,4.46-4,7.01-.29.85-.73,2.07-.23,2.92.57.98,1.66.51,2.4.02,2.12-1.42,3.55-3.49,4.53-5.82.48-1.14.96-2.27,1.45-3.41-.28,1.61-.49,3.22-.5,4.88-.02,2.42.09,4.91,1.09,7.15.39.89,1.58,3.19,2.76,1.86.78-.88.99-2.35,1.13-3.47.19-1.49.16-3.01.06-4.51-.23-3.42-.95-6.7-2.65-9.68.01,0,.03,0,.04-.01.08.03.16.06.24.1.48.73.88,1.54,1.27,2.28.73,1.37,1.63,2.61,2.5,3.9,1.66,2.45,3.4,4.88,5.97,6.43.79.47,2,1.21,2.94.75.94-.46.69-1.74.49-2.55-.77-3-3.05-5.4-5.33-7.38-1.1-.96-2.42-1.5-3.68-2.16.95.19,1.91.33,2.85.4,1.29.11,2.59.08,3.88-.06,1.01-.1,2.02-.22,2.96-.62.6-.26,1.31-.64,1.57-1.28.28-.67-.23-1.22-.78-1.54-1.03-.6-2.34-.81-3.51-.9-1.21-.09-2.43-.01-3.64.17-2.2.33-4.34,1.01-6.5,1.61,4.23-1.78,8.93-3.36,11.56-7.32.34-.51.63-1.05.85-1.63.21-.57.57-1.15.6-1.77.06-1.22-1.26-1.35-2.16-1.22-1.25.18-2.43.56-3.5,1.25-1.26.82-2.34,1.91-3.35,3.02-1.12,1.23-2.23,2.47-3.32,3.73-.56.63-1.06,1.28-1.5,1.97.18-1.28.12-2.62.06-3.88-.11-2.44-.25-4.96-1.38-7.18-.35-.68-.78-1.56-1.47-1.96-.65-.37-1.34,0-1.56.67-.26.78-.09,1.66-.03,2.46.09,1.27.09,2.54.25,3.81.19,1.51.46,3.04.98,4.48.21.6.48,1.18.75,1.75-.1-.1-.2-.21-.31-.31-.85-.83-1.79-1.58-2.71-2.34-1.58-1.29-3.4-2.63-5.46-2.98-.89-.15-1.96-.07-2.63.61-.58.59-.44,1.4-.07,2.06.45.82,1.15,1.5,1.85,2.11.82.73,1.7,1.35,2.68,1.84.73.36,1.5.67,2.28.92-.64.09-1.27.2-1.91.32-1.43.28-2.84.62-4.22,1.1ZM509.68,381.04s-.04-.03-.06-.05c.04-.03.08-.06.12-.09-.02.05-.04.1-.06.14Z"/>
            <path class="cls-15" d="M512.16,382.89c.23-1.11-.24-2.35-1.2-2.95-.35-.22-.75-.35-1.15-.41-2.8-.46-5.16,2.51-3.56,5.06,1.46,2.34,5.44.59,5.92-1.7Z"/>
          </g>
        </g>
        <g>
          <path class="cls-13" d="M500.78,416.46c-.4,1.94-1.3,3.72-2.03,5.54-.74,1.84-1.21,3.77-1.5,5.73-.29,2.03-.35,4.08-.16,6.13.19,2.05.55,4.09.8,6.13.09.78.2,1.56.34,2.33-1.89-4-4-7.91-6.36-11.65-1.92-3.04-3.99-5.97-6.19-8.82-.21-.28-.64.04-.43.32,3.66,5.09,6.93,10.5,9.79,16.07.77,1.51,1.51,3.03,2.23,4.56-.13-.08-.27-.15-.41-.23-4.01-4.58-9.62-7.59-15.01-10.22-2.05-1-4.09-2.01-6.06-3.17-.18-.11-.38.17-.25.32,1.15,1.39,1.91,3.08,3.16,4.38,1.3,1.36,2.8,2.56,4.35,3.62,3.11,2.15,6.63,3.34,10.21,4.47,1.33.42,2.73.82,3.92,1.57.33.38.66.76.98,1.15,1.56,3.48,2.97,7.03,4.24,10.63.57,1.62,1.12,3.25,1.65,4.88.04.13.08.26.13.39l.83-.1c-.4-1.47-.83-2.94-1.29-4.39-.94-2.97-2.04-5.9-3.24-8.77-.53-1.26-1.08-2.51-1.64-3.75-.23-.86-.38-1.75-.49-2.65.09.07.23.06.28-.07.52-1.37.83-2.83,1.2-4.24.41-1.56.81-3.13,1.15-4.71.33-1.54.6-3.09.67-4.67.08-1.69-.08-3.35-.13-5.04-.05-1.92-.27-3.83-.28-5.76,0-.27-.4-.24-.45,0Z"/>
          <g>
            <path class="cls-17" d="M484.14,400.46c-.72.83-1.1,1.91-1.38,2.96-.35,1.34-.5,2.73-.54,4.11-.05,1.66,0,3.31.28,4.95.16.95.36,1.9.54,2.86-.04.03-.07.06-.11.09-.24-.73-.61-1.45-.94-2.07-.63-1.2-1.39-2.35-2.13-3.48-1.16-1.76-2.43-3.64-4.3-4.7-.83-.47-2.74-1.26-2.82.36-.05.98.45,1.99.96,2.8.65,1.02,1.5,1.91,2.38,2.74.98.94,2,1.84,2.99,2.78.74.7,1.48,1.39,2.28,2.02-.83-.29-1.8-.34-2.62-.42-1.6-.15-3.19-.3-4.8-.18-1.63.12-3.29.49-4.85,1-1.02.33-2.02.82-2.92,1.42-.53.35-1.5.97-1.28,1.74.17.6.88.81,1.42.9,1.57.29,3.3.13,4.87-.06,1.64-.2,3.26-.52,4.87-.91,1.25-.3,2.48-.67,3.72-1.02-1.44.88-2.68,2.16-3.77,3.4-1.58,1.79-3.38,3.6-4.16,5.91-.29.87-.51,2.03.07,2.83.54.74,1.57.74,2.32.35.97-.49,1.63-1.44,2.3-2.26.82-.99,1.61-1.97,2.31-3.05.86-1.34,1.63-2.75,2.29-4.19.26-.57.51-1.16.7-1.77,0,.22-.02.44-.03.65-.05,1.12-.11,2.23-.12,3.34,0,2.16.19,4.29,1.14,6.27.4.83,1.76,2.48,2.66,1.19.49-.71.37-1.79.39-2.6.02-1.25-.01-2.53-.16-3.78-.24-1.98-.98-3.78-1.74-5.59,1.18.95,2.34,1.94,3.53,2.87,1.78,1.38,3.8,2.74,6.09,3.02.73.09,1.89.15,2.3-.63.37-.7-.21-1.52-.67-2.01-.93-1.01-2.19-1.79-3.37-2.46-1.12-.64-2.29-1.17-3.48-1.65-1.01-.4-2.02-.76-3.05-1.11,4.05.02,8.24,0,11.84-1.91.81-.43,2.16-1.1,2.3-2.13.16-1.16-1.39-1.76-2.29-1.93-1.24-.23-2.57-.11-3.81.04-1.43.18-2.85.5-4.21.97-1.38.48-2.81,1.04-4.12,1.79.48-1.36.72-2.85.99-4.16.3-1.43.64-2.85.82-4.3.17-1.36.31-2.81.06-4.17-.11-.64-.39-1.43-1.1-1.63-.65-.18-1.3.34-1.69.79Z"/>
            <path class="cls-15" d="M479.88,416.83c.15,1.04.76,2.02,1.68,2.52s2.13.47,2.97-.16c.41-.3.71-.73.92-1.2.56-1.3.24-2.93-.76-3.92-.84-.83-2.59-1.42-3.69-.76-.99.6-1.25,2.51-1.11,3.52Z"/>
          </g>
        </g>
        <g>
          <rect class="cls-28" x="46.96" y="473.34" width="30.32" height="122.48" transform="translate(-.61 .07) rotate(-.07)"/>
          <path class="cls-3" d="M30.11,312.91l-14.78,22.18s-18.43,31.15-18.64,31.5c-11.26,19.03-19.27,36.77-34.82,53.23-18.16,19.21-37.44,37.36-57.71,54.33,26.65-3.27,52.35-13.93,73.48-30.49-18.1,25.73-44.13,45.81-73.62,56.78,25.48,4.39,50.99-5.6,74.91-15.4-15.12,17.54-33.56,32.22-54.04,43.04,31.38,1.65,60.8-13.89,88.35-28.99-5.94,12.33-11.87,24.66-17.81,36.99,15.03-7.13,28.5-17.53,39.2-30.26,4.33,12.95,9.42,25.65,15.24,38.01,3.16-14.55,6.32-29.1,9.48-43.65,12.02,15.7,26.88,29.21,43.63,39.7-2.45-14.81-4.9-29.62-7.35-44.43,15.89,16.15,35.6,28.52,57.05,35.82-3.59-14.85-8.38-29.41-14.32-43.49,17.89,15.47,39.27,26.86,62.09,33.08-8.31-11.66-17.91-22.41-28.56-31.98,16.38,7.16,34.28,10.83,52.15,10.7-11.05-8.23-22.11-16.46-33.16-24.7,15.31,3.17,31.24,3.35,46.62.53-21.43-16.05-42.86-32.1-64.29-48.16,13.35,4.67,27.53,8.83,41.47,6.41-4.32.75-20.48-14.36-24.33-17.17-8.84-6.46-17.54-13.13-25.89-20.23-16.36-13.92-31.53-29.55-42.91-47.86-17.68-28.44-30.81-59.92-44.92-90.33l-18.22-70.13-28.32,125Z"/>
          <path class="cls-22" d="M31.43,212.59c-7.51,28.58-18.24,55.23-42.32,73.52,8.1.05,16.2-1.29,23.85-3.93-9.05,18.06-21.86,35.12-38.69,46.41,6.36.83,22.67,1.32,27.42-4.49-7.24,8.85-15.19,16.97-24.68,23.35-4.66,3.13-9.58,5.86-14.7,8.17-3.52,1.59-11.34,6.13-15.22,5.5,11.36,1.85,23.3-.1,33.47-5.47-15.75,13.11-34.98,21.99-55.18,25.46,12.76,6.79,28.07,5.86,42.48,4.76-14.79,8.92-30.59,16.19-47,21.6,21.85,5.83,47.83,4.74,66.56-9.28-15.02,18.22-31.82,34.97-50.08,49.94,26.77-5.84,52.33-17.17,74.63-33.08,1.51,10.9,2.33,21.89,2.44,32.89,4.4-6.39,8.81-12.79,13.21-19.18,3.11,12.98,6.22,25.96,9.32,38.95,10.85-19.01,19.27-39.41,24.99-60.54,11.96,19.57,26.68,37.45,43.59,52.94.31-17.17-2.2-34.39-7.4-50.76,12.97,15.21,32.21,24.9,52.15,26.29-10.37-8.94-20.35-18.33-29.9-28.14,14.21,7.08,30,10.96,45.87,11.29-6.88-5.52-13.31-11.6-19.2-18.16,18.96,6.26,40.03,5.88,58.75-1.04-15.93-5.83-30.95-14.13-44.36-24.5,12.51,3.99,26.73,1.75,37.63-5.49-16.79-4.9-32.44-13.65-45.4-25.39,6.25,2.06,13.22,1.85,19.33-.57-16.21-3.31-31.1-12.7-41.07-25.89,9.67,2.94,20.34,2.47,29.71-1.29-3.28,1.32-15.89-9.63-18.39-11.72-6.35-5.29-11.95-11.48-16.56-18.33-8.9-13.25-19.37-25.47-25.56-40.49,5.03,5.75,10.68,10.96,16.81,15.51-11.48-19.56-21.05-39.59-29.68-60.49l-30.45-88.65s-26.38,100.32-26.38,100.33Z"/>
          <path class="cls-22" d="M129.27,331.89c-10.37-5.16-19.57-12.65-26.71-21.76,7.53,11.52,15.06,23.04,22.59,34.56-15.88-3.62-30.56-12.32-41.36-24.52,4.01,12.34,6.71,25.1,8.07,38-15.71-7.41-29.24-19.37-38.53-34.04-1.72,13.7-5.33,27.16-10.69,39.88-7.29-15.98-12.27-33.01-14.75-50.4-5.99,7.39-13.08,13.89-20.97,19.2-.49-4.29-1.44-8.52-2.81-12.61-8.13,10.31-15.7,19.79-26.76,27.24-4.66,3.13-9.58,5.86-14.7,8.17-3.52,1.59-11.34,6.13-15.22,5.5,11.36,1.85,23.3-.1,33.47-5.47-15.75,13.11-34.98,21.99-55.18,25.46,12.76,6.79,28.07,5.86,42.48,4.76-14.79,8.92-30.59,16.19-47,21.6,21.85,5.83,47.83,4.74,66.56-9.28-15.02,18.22-31.82,34.97-50.08,49.94,26.77-5.84,52.33-17.17,74.63-33.08,1.51,10.9,2.33,21.89,2.44,32.89,4.4-6.39,8.81-12.79,13.21-19.18,3.11,12.98,6.22,25.96,9.32,38.95,10.85-19.01,19.27-39.41,24.99-60.54,11.96,19.57,26.68,37.45,43.59,52.94.31-17.17-2.2-34.39-7.4-50.76,12.97,15.21,32.21,24.9,52.15,26.29-10.37-8.94-20.35-18.33-29.9-28.14,14.21,7.08,30,10.96,45.87,11.29-6.88-5.52-13.31-11.6-19.2-18.16,18.96,6.26,40.03,5.88,58.75-1.04-15.92-5.83-30.95-14.13-44.36-24.5,12.51,3.99,26.73,1.75,37.63-5.49-16.79-4.9-32.44-13.65-45.4-25.39,6.25,2.06,13.22,1.85,19.33-.57-5.68,2.25-20.76-7.72-25.21-10.77-10.71-7.37-19.53-18.31-26.15-29.35,1.03,5.8,1.16,25.35,7.29,28.4Z"/>
          <path class="cls-19" d="M114.23,433.25c20.56,11.95,45.32,16.5,68.79,12.67-8.51-5.75-16.45-12.34-23.67-19.64,12.53,2.21,25.17,3.83,37.86,4.86-11.05-4.75-20.96-12.09-28.72-21.27,6.19.96,12.39,1.92,18.58,2.89-4.13-1.64-7.78-4.49-10.37-8.1-9.57.94-19.36-.35-28.36-3.75,5.59,6.19,11.48,12.11,17.65,17.72-15.02-.99-29.9-4.22-43.98-9.54,8.08,9.94,17.31,18.94,27.46,26.75-20.01.53-37.04-13.63-51.96-26.97,4.72,14.45,7.04,29.68,6.85,44.89-20.83-29.1-34.34-63.4-38.94-98.9,7.45,7.74,15.35,15.27,24.82,20.34,9.47,5.06,20.8,7.45,31.1,4.42-7.65-9.4-14.28-19.63-19.75-30.44,13.28,11.56,31.9,16.71,49.24,13.65-7.4-5.64-14.02-12.28-19.64-19.69,5.82,2.18,12.38,2.3,18.28.33-6.8-4.28-12.59-10.15-16.75-17.02,2.7.61,5.39,1.23,8.09,1.84-6.9-6.6-12.82-14.22-17.5-22.55-.71,8.54.65,17.24,3.94,25.15-8.14-3.79-15.5-9.24-21.49-15.92,5,10.05,10.68,19.76,16.99,29.04-15.47-4.01-29.64-12.9-39.98-25.09,1.87,11.31,3.73,22.61,5.6,33.92-20.18-18.35-42.17-57.1-31.19-84.88-1.11.77.14,2.71,1.48,2.56,1.34-.15,2.24-1.41,2.93-2.56,7.18-11.99,11.04-25.94,11.04-39.91-1.58,6.21-5.06,11.93-9.84,16.19-4.02-6.16-6.26-13.47-6.37-20.83-2.72,1.96-5.45,3.91-8.17,5.87,2.47-21.03,4.68-42.08,6.65-63.16.98-10.54,1.9-21.09,2.76-31.64.43-5.26,1.06-10.56,1.24-15.83.1-3.15-.56-8.82-1.78-3.5-3.93,17.12-22.53,86.47-29.56,111.48-7.39,23.35-18.18,44.62-38.41,59.98,8.1.05,16.2-1.29,23.85-3.93-9.05,18.06-21.86,35.12-38.69,46.41,5.61.73,18.98,1.19,25.3-2.71-3.33,4.11-6.7,8.05-10.38,11.72-3.8,3.58-7.81,6.92-12.18,9.86-4.65,3.13-9.58,5.86-14.7,8.17-3.08,1.39-9.44,5.03-13.59,5.51-.46.03-.92.05-1.29,0-.11,0-.24.01-.35,0,2.89.47,5.82.69,8.75.67,8.37,0,16.73-1.97,24.21-5.75-15.65,12.88-34.68,21.62-54.66,25.06,8.05,4.28,17.12,5.49,26.34,5.53,5.37.04,10.79-.34,16.1-.74-14.78,8.91-30.56,16.16-46.95,21.58,8.23,2.2,17.04,3.41,25.83,3.32,9.01-.06,18.01-1.49,26.34-4.62-3.32,4.64-6.96,9.2-11.17,13.65-18.16,19.21-37.44,37.36-57.71,54.33,26.65-3.27,52.35-13.93,73.48-30.49-18.1,25.73-44.13,45.81-73.62,56.78,25.48,4.39,50.99-5.6,74.91-15.4-15.12,17.54-33.56,32.22-54.04,43.04,31.38,1.65,60.79-13.89,88.35-28.99-5.94,12.33-11.87,24.66-17.81,36.99,15.03-7.13,28.5-17.53,39.2-30.26,4.33,12.95,9.42,25.65,15.24,38.01,3.16-14.55,6.32-29.1,9.48-43.65,12.02,15.7,26.88,29.21,43.63,39.7-2.45-14.81-4.9-29.62-7.35-44.43,8.06,8.19,17.11,15.42,26.87,21.5,5.02,3.13,10.23,5.99,15.61,8.46,3.48,1.6,7.45,2.62,11.09,3.81-2.29-.75-8.81-17.38-10.35-20.51-3.98-8.1-7.57-16.39-10.75-24.84-6.23-16.54-10.89-33.68-13.87-51.1Z"/>
        </g>
        <g>
          <path class="cls-29" d="M507.78,445.83c3.79-4.97,8.26-9.13,12.61-10.5,4.96-1.56,11.02-.29,14.03,3.94,1.18,1.66,1.9,3.71,3.53,4.92,1.02.76,2.28,1.09,3.48,1.5,3.16,1.1,25.07,13.01,19.86,16.54-3.23,2.19-14.29.77-18.15.36-.68-.07-1.49-.11-1.9.33-.38.41-.21,1.03-.51,1.49-.37.56-1.26.67-2.03.71-13.35.71-26.81.05-40-1.94,1.29-4.85,4.73-11.63,9.08-17.34Z"/>
          <path class="cls-30" d="M507.88,445.88c1.94-2.55,4.11-4.98,6.59-7.02,1.1-.9,2.26-1.73,3.51-2.4.56-.3,1.23-.49,1.77-.82.49-.3.71-.77,1.35-.87,3.18-.46,6.45.91,8.78,3.12,2.33,2.22,3.8,5.21,4.72,8.29.08.27.13.62-.1.78-.15.1-.34.08-.52.06-.61-.07-1.23-.03-1.82.12-.13.03-.27.08-.35.19-.11.18,0,.41.11.59,2.73,4.15,9.44,3.88,12.35,7.91.31.43.58.94.52,1.47-.11.99-1.21,1.5-2.17,1.76-4.54,1.22-9.38,1.02-13.89,2.33-.47.14-1.04.45-.97.93.05.33.4.53.53.84.23.53-.24,1.1-.72,1.43-1.89,1.25-4.32.81-6.46.73-2.52-.09-5.04-.23-7.55-.42-1.25-.09-14.75-1.7-14.76-1.67,1.29-4.85,4.73-11.63,9.08-17.34Z"/>
        </g>
        <path class="cls-31" d="M523.1,467.8c1.45-1.85,2.99-3.99,3.34-6.37.52-3.52-3-1.65-4.18-.15-1.32,1.68-2.14,3.73-2.4,5.86-.74-2.39-2.92-7.79-6.02-7.94-3.72-.17-.3,5.92.76,7.11.88.99,2.28,2.48,3.6,3.4,1.37-.5,2.79-.85,4.24-1.04.23-.31.44-.61.65-.88Z"/>
        <g>
          <path class="cls-28" d="M465.87,145.39c5.48-.46,11.11,2.55,13.78,7.36,1.72-1.73,4.01-2.72,6.43-2.97,2.43-.25,4.93.38,6.96,1.73-1.12-2.04-3.42-3.11-5.72-3.43-2.31-.31-4.64.1-6.93.51-3.57-3.95-9.58-5.2-14.52-3.2Z"/>
          <path class="cls-28" d="M545.05,122.87c4.52-3.14,10.89-3.36,15.61-.53.62-2.36,2.11-4.36,4.08-5.79,1.98-1.43,4.46-2.14,6.89-1.99-1.99-1.21-4.52-.98-6.67-.1-2.15.88-3.97,2.41-5.75,3.91-5.07-1.63-10.89.3-14.17,4.5Z"/>
          <path class="cls-28" d="M521.01,148.18c2.33,0,4.64,1.05,6.15,2.82.67-.98,1.8-1.44,2.99-1.45,1.19,0,2.35.42,3.4.98-.55-.96-1.6-1.62-2.69-1.87-1.08-.26-2.27-.04-3.19.57-1.82-1.62-4.4-1.95-6.67-1.04Z"/>
        </g>
      </g>
    </g>
    <g id="Layer_3" data-name="Layer 3">
      <path d="M286.09,288.82h-83.34c-2.21,0-4-1.79-4-4v-18.28c0-2.21,1.79-4,4-4h83.34c2.21,0,4,1.79,4,4v18.28c0,2.21-1.79,4-4,4Z"/>
      <text class="cls-18" transform="translate(210.41 278.99)"><tspan x="0" y="0">Gjestfriheten</tspan></text>
      <g>
        <path class="cls-2" d="M242.83,298.94c.13-12.33-1.6-20.17-1.6-20.17"/>
        <polygon points="246.81 297.89 242.63 304.68 238.84 297.67 246.81 297.89"/>
      </g>
    </g>
  </g>
</svg>